<svg xmlns="http://www.w3.org/2000/svg" version="1.1" xmlns:xlink="http://www.w3.org/1999/xlink" xmlns:svgjs="http://svgjs.dev/svgjs" width="128" height="128" viewBox="0 0 128 128"><g transform="matrix(0.8046875,0,0,0.8046875,12.333870967741937,12.333870967741937)"><svg viewBox="0 0 155 155" data-background-color="#ffffff" preserveAspectRatio="xMidYMid meet" height="128" width="128" xmlns="http://www.w3.org/2000/svg" xmlns:xlink="http://www.w3.org/1999/xlink"><g id="tight-bounds" transform="matrix(1,0,0,1,0.25,0.25)"><svg viewBox="0 0 154.5 154.5" height="154.5" width="154.5"><g><svg></svg></g><g><svg viewBox="0 0 154.5 154.5" height="154.5" width="154.5"><g transform="matrix(1,0,0,1,51.09845899328859,43.83165)"><svg viewBox="0 0 52.30308201342282 66.8367" height="66.8367" width="52.30308201342282"><g><svg viewBox="0 0 52.30308201342282 66.8367" height="66.8367" width="52.30308201342282"><g><svg viewBox="0 0 52.30308201342282 66.8367" height="66.8367" width="52.30308201342282"><g id="textblocktransform"><svg viewBox="0 0 52.30308201342282 66.8367" height="66.8367" width="52.30308201342282" id="textblock"><g><svg viewBox="0 0 52.30308201342282 66.8367" height="66.8367" width="52.30308201342282"><g transform="matrix(1,0,0,1,0,0)"><svg width="52.30308201342282" viewBox="3.85 -37.25 29.15 37.25" height="66.8367" data-palette-color="#7dd3fc"><path d="M9.75 0L3.85 0 3.85-37.25 9.75-37.25 9.75-17.05 8.2-17.65 25.05-37.25 32.4-37.25 17.5-19.8 17.8-24 33 0 26.05 0 15.15-17.05 9.75-10.75 9.75 0Z" opacity="1" transform="matrix(1,0,0,1,0,0)" fill="#7dd3fc" class="wordmark-text-0" data-fill-palette-color="primary" id="text-0"></path></svg></g></svg></g></svg></g></svg></g><g></g></svg></g></svg></g><g><path d="M0 154.5v-154.5h154.5v154.5zM148.473 148.473v-142.446h-142.446v142.446z" fill="#7dd3fc" fill-rule="nonzero" stroke="none" stroke-width="1" stroke-linecap="butt" stroke-linejoin="miter" stroke-miterlimit="10" stroke-dasharray="" stroke-dashoffset="0" font-family="none" font-weight="none" font-size="none" text-anchor="none" style="mix-blend-mode: normal" data-fill-palette-color="tertiary"></path></g></svg></g><defs></defs></svg><rect width="154.5" height="154.5" fill="none" stroke="none" visibility="hidden"></rect></g></svg></g></svg>