<svg xmlns="http://www.w3.org/2000/svg" width="1500" height="568">
  <g transform="translate(.16 .375)">
    <svg xmlns="http://www.w3.org/2000/svg" xmlns:xlink="http://www.w3.org/1999/xlink" width="1500" height="568" data-background-color="#ffffff" viewBox="0 0 375 142">
      <g transform="translate(-.04 -.094)">
        <svg width="375.08" height="142.187" viewBox="0 0 375.08 142.187">
          <g>
            <svg/>
          </g>
          <g>
            <svg width="375.08" height="142.187" viewBox="0 0 375.08 142.187">
              <g>
                <path fill="#89939e" d="M10.22 189.494V57.706H385.3v131.788h-71.192v-4.587h66.605V62.293H14.807v122.614h66.605v4.587z" data-fill-palette-color="tertiary" font-family="none" font-size="none" font-weight="none" style="mix-blend-mode:normal" text-anchor="none" transform="translate(-10.22 -57.706)"/>
                <g>
                  <path fill="#89939e" d="M109.417 193.518H98.581l-3.339.07a1.302 1.302 0 0 1 0-.841l1.938-.257c.062-.794.093-1.713.094-2.755v-13.778l-1.892-.234c-.062-.234-.062-.522 0-.864.856.062 1.923.093 3.199.093a69.68 69.68 0 0 0 3.223-.07c.093.28.093.56 0 .841l-1.938.28c-.062.592-.093 1.502-.094 2.733v13.591h7.707l1.097-4.227c.234-.062.522-.062.864 0zm11.373-6.586h-7.333c-.14 3.97 1.051 5.955 3.573 5.955 1.074 0 2.172-.475 3.293-1.424.234.14.413.381.537.724-1.074 1.199-2.436 1.798-4.087 1.798-3.799 0-5.698-2.234-5.698-6.702 0-2.117.56-3.764 1.681-4.942 1.121-1.174 2.429-1.761 3.924-1.761 1.635 0 2.81.568 3.526 1.705.716 1.136 1.074 2.615 1.074 4.437a.904.904 0 0 1-.49.21zm-4.157-5.417c-.81 0-1.498.42-2.064 1.261-.57.841-.917 1.915-1.042 3.222h2.896c1.152 0 1.977-.07 2.475-.21 0-1.277-.195-2.309-.584-3.097-.389-.785-.95-1.177-1.681-1.176zm8.804 8.897c0 .81.148 1.381.444 1.714.296.336.763.504 1.401.504.467 0 .985-.145 1.555-.434.567-.286 1.091-.702 1.574-1.247v-3.643c-1.604.093-2.833.377-3.69.85-.856.476-1.284 1.228-1.284 2.256zm4.974-3.947v-1.191c0-1.323-.151-2.285-.453-2.886-.305-.598-.808-.897-1.509-.897-.716 0-1.292.229-1.728.687-.436.461-.732 1.244-.887 2.349-.498.109-.864.163-1.098.163-.607 0-.965-.218-1.074-.653 0-1.059.459-1.899 1.378-2.522.919-.623 2.063-.934 3.433-.935 1.51 0 2.581.307 3.213.921.629.617.943 1.719.944 3.306v6.586c0 .389.023.724.07 1.004l1.844.233c.062.234.062.529 0 .888a37.795 37.795 0 0 0-3.526.327.833.833 0 0 1-.233-.467l-.117-1.612c-1.292 1.479-2.732 2.219-4.32 2.219-.981 0-1.747-.28-2.298-.841-.554-.56-.831-1.316-.832-2.265 0-1.432.651-2.514 1.953-3.246 1.298-.732 3.045-1.121 5.24-1.168zm9.318-5.418-.047 2.406c.389-.716.931-1.375 1.625-1.976.691-.598 1.348-.897 1.971-.897.483 0 .911.054 1.285.164.125.202.187.467.187.794 0 .514-.109 1.028-.327 1.541a5.965 5.965 0 0 0-1.612-.233c-1.277 0-2.327.623-3.152 1.868l-.047 4.087v3.526l2.592.35c.062.249.062.56 0 .934a71.142 71.142 0 0 0-3.363-.07c-.95 0-2.078.016-3.386.047a1.522 1.522 0 0 1 0-.911l1.845-.257c.062-.856.093-1.845.093-2.966v-6.398c0-.311-.023-.599-.07-.864l-1.844-.234c-.062-.234-.062-.529 0-.887 1.074-.078 2.413-.241 4.016-.491.14.156.218.311.234.467zm15.599 8.407v-4.273c0-1.199-.159-2.039-.476-2.522-.321-.483-.855-.724-1.602-.724-1.152 0-2.312.864-3.48 2.592v7.8l1.892.35c.062.249.062.56 0 .934a62.974 62.974 0 0 0-3.013-.07c-.716 0-1.728.016-3.035.047a1.522 1.522 0 0 1 0-.911l1.844-.257c.062-.856.093-1.845.094-2.966v-6.398c0-.311-.023-.599-.07-.864l-1.845-.234c-.062-.234-.062-.529 0-.887 1.074-.078 2.413-.241 4.017-.491.14.156.218.311.233.467-.078.405-.117 1.098-.117 2.079 1.23-1.697 2.615-2.545 4.157-2.546 2.413 0 3.62 1.144 3.62 3.433v8.314l1.891.35c.062.249.062.56 0 .934a62.963 62.963 0 0 0-3.012-.07c-.716 0-1.728.016-3.036.047a1.522 1.522 0 0 1 0-.911l1.845-.257c.062-.856.093-1.845.093-2.966zm13.358.958c0 .81.148 1.381.444 1.714.296.336.763.504 1.401.504.467 0 .985-.145 1.555-.434.567-.286 1.091-.702 1.574-1.247v-3.643c-1.604.093-2.833.377-3.69.85-.856.476-1.284 1.228-1.284 2.256zm4.974-3.947v-1.191c0-1.323-.151-2.285-.453-2.886-.305-.598-.808-.897-1.509-.897-.716 0-1.292.229-1.728.687-.436.461-.732 1.244-.887 2.349-.498.109-.864.163-1.098.163-.607 0-.965-.218-1.074-.653 0-1.059.459-1.899 1.378-2.522.919-.623 2.063-.934 3.433-.935 1.51 0 2.581.307 3.213.921.629.617.943 1.719.944 3.306v6.586c0 .389.023.724.07 1.004l1.845.233c.062.234.062.529 0 .888a37.846 37.846 0 0 0-3.527.327.833.833 0 0 1-.233-.467l-.117-1.612c-1.292 1.479-2.732 2.219-4.32 2.219-.981 0-1.747-.28-2.298-.841-.554-.56-.831-1.316-.832-2.265 0-1.432.651-2.514 1.953-3.246 1.298-.732 3.045-1.121 5.24-1.168zm14.759 2.989v-4.273c0-1.199-.159-2.039-.476-2.522-.321-.483-.855-.724-1.602-.724-1.152 0-2.312.864-3.48 2.592v7.8l1.892.35c.062.249.062.56 0 .934a62.974 62.974 0 0 0-3.013-.07c-.716 0-1.728.016-3.036.047a1.522 1.522 0 0 1 0-.911l1.845-.257c.062-.856.093-1.845.094-2.966v-6.398c0-.311-.023-.599-.071-.864l-1.844-.234c-.062-.234-.062-.529 0-.887 1.074-.078 2.413-.241 4.016-.491.14.156.218.311.234.467-.078.405-.117 1.098-.117 2.079 1.23-1.697 2.615-2.545 4.157-2.546 2.413 0 3.62 1.144 3.619 3.433v8.314l1.892.35c.062.249.062.56 0 .934a62.963 62.963 0 0 0-3.012-.07c-.716 0-1.728.016-3.036.047a1.522 1.522 0 0 1 0-.911l1.845-.257c.062-.856.093-1.845.093-2.966zm16.744-10.742v11.49c0 1.043.023 1.775.07 2.195l1.845.233c.047.249.047.545 0 .888-1.136.047-2.32.156-3.55.327a.925.925 0 0 1-.233-.444l-.117-1.495a5.975 5.975 0 0 1-2.032 1.528 5.882 5.882 0 0 1-2.545.574c-1.354 0-2.475-.565-3.363-1.695-.887-1.127-1.331-2.633-1.331-4.517 0-2.18.581-3.928 1.742-5.245 1.158-1.314 2.547-1.971 4.166-1.971 1.277 0 2.32.304 3.129.911v-3.129c0-1.028-.023-1.79-.07-2.289l-1.845-.233c-.062-.234-.062-.529 0-.888 1.074-.078 2.413-.241 4.017-.49.14.156.218.311.234.467-.078.405-.117 1.666-.117 3.783zm-5.535 3.129c-1.012 0-1.821.532-2.428 1.598-.607 1.068-.911 2.544-.911 4.427 0 1.541.283 2.717.85 3.527.57.81 1.322 1.214 2.256 1.214.56 0 1.175-.176 1.845-.528a4.989 4.989 0 0 0 1.704-1.457v-7.473c-.763-.872-1.868-1.308-3.316-1.308zm16.697 7.894v-13.778l-1.891-.257a1.302 1.302 0 0 1 0-.841l3.199.07h9.435l.023 5.418c-.343.062-.631.062-.864 0l-1.098-4.227h-6.305v7.006l3.736-.07.538-2.289c.234-.062.522-.062.864 0a43.576 43.576 0 0 0-.094 3.013c0 1.043.023 2.055.07 3.036a1.3 1.3 0 0 1-.84 0l-.514-2.429-3.76-.07v8.01h7.006l1.097-4.227c.234-.062.522-.062.864 0l-.023 5.418h-10.135l-3.339.07a1.302 1.302 0 0 1 0-.841l1.938-.257c.062-.794.093-1.713.093-2.755zm26.552-7.823-1.751.256-3.9 4.834 4.063 5.278 1.962.374c.062.249.062.56 0 .934a65.036 65.036 0 0 0-3.106-.07c-.778 0-1.821.016-3.129.046a1.519 1.519 0 0 1 0-.91l1.705-.257-2.943-3.853-3.082 3.923 1.588.187c.062.249.062.56 0 .934a52.157 52.157 0 0 0-2.406-.07c-.311 0-1.121.016-2.428.046a1.519 1.519 0 0 1 0-.91l1.751-.257 3.853-4.787-4.133-5.418-1.425-.327c-.062-.249-.062-.553 0-.911a39.71 39.71 0 0 0 2.849.093c.903 0 1.86-.023 2.873-.07.093.28.093.576 0 .888l-1.682.303 3.036 3.97 3.176-4.04-1.588-.186c-.062-.249-.062-.56 0-.935.856.062 1.635.093 2.335.094.576 0 1.37-.023 2.382-.07.093.311.093.615 0 .911zm8.501 10.812c1.028 0 1.842-.498 2.442-1.495.598-.996.897-2.499.897-4.507 0-1.541-.283-2.717-.85-3.526-.57-.81-1.322-1.214-2.256-1.214-1.37 0-2.553.662-3.549 1.985v7.262c.872.996 1.977 1.495 3.316 1.495zm-5.535 3.012v-11.349c0-1.043-.023-1.775-.07-2.195l-1.845-.234a2.79 2.79 0 0 1 0-.887c1.09-.078 2.429-.241 4.017-.491.14.14.218.296.233.467a12.062 12.062 0 0 0-.116 1.729c1.261-1.463 2.709-2.195 4.343-2.196 1.37 0 2.511.568 3.424 1.705.909 1.136 1.364 2.639 1.363 4.507 0 2.164-.595 3.903-1.784 5.217-1.193 1.317-2.598 1.976-4.217 1.976-1.136 0-2.18-.366-3.129-1.098v5.722l2.358.35c.062.249.062.56 0 .934a68.298 68.298 0 0 0-3.246-.07c-.872 0-1.962.016-3.269.047a1.522 1.522 0 0 1 0-.911l1.845-.257c.062-.856.093-1.845.093-2.966zm16.977-17.024v13.615l1.892.35c.062.249.062.56 0 .934a62.974 62.974 0 0 0-3.013-.07c-.716 0-1.728.016-3.035.047a1.522 1.522 0 0 1 0-.911l1.845-.257c.062-.856.093-1.845.093-2.966v-13.381l-1.915-.233c-.062-.234-.062-.529 0-.888 1.074-.078 2.413-.241 4.017-.49.14.156.218.311.233.467-.078.405-.117 1.666-.117 3.783zm3.387 8.594c0-.934.137-1.811.411-2.63a6.367 6.367 0 0 1 1.177-2.134 5.627 5.627 0 0 1 1.858-1.439c.722-.349 1.535-.523 2.438-.523.887 0 1.697.174 2.429.523a5.726 5.726 0 0 1 1.882 1.439c.52.607.92 1.319 1.201 2.134.28.819.42 1.695.42 2.63 0 .965-.143 1.853-.43 2.662a6.534 6.534 0 0 1-1.214 2.111 5.473 5.473 0 0 1-1.882 1.401 5.71 5.71 0 0 1-2.406.505c-.919 0-1.739-.163-2.461-.491a5.213 5.213 0 0 1-1.845-1.377c-.508-.592-.897-1.297-1.167-2.116-.274-.816-.411-1.714-.411-2.695zm3.409-4.297c-.669.95-1.004 2.382-1.004 4.297 0 .95.09 1.783.271 2.499.177.716.422 1.311.733 1.784.311.476.677.831 1.098 1.065.42.234.88.35 1.377.35.483 0 .942-.117 1.378-.35.436-.234.81-.588 1.121-1.065.311-.473.56-1.068.747-1.784.187-.716.28-1.549.281-2.499 0-.95-.093-1.787-.281-2.513-.187-.722-.439-1.322-.756-1.798-.321-.473-.694-.831-1.121-1.074-.43-.24-.886-.36-1.369-.36-.965 0-1.79.483-2.475 1.448zm14.385-1.962-.046 2.406c.389-.716.931-1.375 1.625-1.976.691-.598 1.348-.897 1.971-.897.483 0 .911.054 1.284.164.125.202.187.467.187.794 0 .514-.109 1.028-.327 1.541a5.963 5.963 0 0 0-1.611-.233c-1.277 0-2.327.623-3.153 1.868l-.047 4.087v3.526l2.593.35c.062.249.062.56 0 .934a71.142 71.142 0 0 0-3.363-.07c-.95 0-2.078.016-3.386.047a1.522 1.522 0 0 1 0-.911l1.845-.257c.062-.856.093-1.845.093-2.966v-6.398c0-.311-.023-.599-.07-.864l-1.845-.234c-.062-.234-.062-.529 0-.887 1.074-.078 2.413-.241 4.017-.491.14.156.218.311.233.467zm15.857 5.885h-7.333c-.14 3.97 1.051 5.955 3.573 5.955 1.074 0 2.172-.475 3.293-1.424.234.14.413.381.537.724-1.074 1.199-2.436 1.798-4.087 1.798-3.799 0-5.698-2.234-5.698-6.702 0-2.117.56-3.764 1.681-4.942 1.121-1.174 2.429-1.761 3.924-1.761 1.635 0 2.81.568 3.526 1.705.716 1.136 1.074 2.615 1.074 4.437a.904.904 0 0 1-.49.21zm-4.157-5.417c-.81 0-1.498.42-2.064 1.261-.57.841-.917 1.915-1.042 3.222h2.896c1.152 0 1.977-.07 2.475-.21 0-1.277-.195-2.309-.584-3.097-.389-.785-.95-1.177-1.681-1.176z" data-fill-palette-color="secondary" font-family="none" font-size="none" font-weight="none" style="mix-blend-mode:normal" text-anchor="none" transform="translate(-10.22 -57.706)"/>
                </g>
              </g>
              <g transform="translate(29.332 45.663)">
                <svg width="316.416" height="50.862" viewBox="0 0 316.416 50.862">
                  <g>
                    <svg width="316.416" height="50.862" viewBox="0 0 316.416 50.862">
                      <g>
                        <svg width="316.416" height="50.862" viewBox="0 0 316.416 50.862">
                          <g>
                            <svg width="316.416" height="50.862" viewBox="0 0 316.416 50.862">
                              <g>
                                <svg width="316.416" height="50.862" viewBox="0 0 316.416 50.862">
                                  <g>
                                    <svg width="316.416" height="50.862" viewBox="0 0 316.416 50.862">
                                      <g>
                                        <svg width="316.416" height="50.862" data-palette-color="#89939e" viewBox="3.85 -37.85 239.18 38.45">
                                          <path fill="#89939e" d="M9.75 0h-5.9v-37.25h5.9v20.2l-1.55-.6 16.85-19.6h7.35L17.5-19.8l.3-4.2L33 0h-6.95l-10.9-17.05-5.4 6.3V0Zm34.7.6q-2.75 0-4.83-.98-2.07-.97-3.22-2.7-1.15-1.72-1.15-4.07 0-2.2.97-3.95.98-1.75 3.03-2.95 2.05-1.2 5.15-1.7l9.4-1.55v4.45l-8.3 1.45q-2.25.4-3.3 1.42-1.05 1.03-1.05 2.63 0 1.55 1.17 2.52 1.18.98 3.03.98 2.3 0 4.02-1 1.73-1 2.68-2.68.95-1.67.95-3.72v-6.95q0-2-1.48-3.28-1.47-1.27-3.92-1.27-2.25 0-3.93 1.17Q42-20.4 41.2-18.55l-4.7-2.35q.75-2 2.45-3.53 1.7-1.52 3.97-2.37 2.28-.85 4.83-.85 3.2 0 5.67 1.2 2.48 1.2 3.85 3.32 1.38 2.13 1.38 4.93V0h-5.4v-4.9l1.15.15q-.95 1.65-2.43 2.85Q50.5-.7 48.62-.05 46.75.6 44.45.6Zm32-.3q-4.25 0-6.6-2.4-2.35-2.4-2.35-6.75v-13.1h-4.75v-5.1h.75q1.9 0 2.95-1.1 1.05-1.1 1.05-3v-2.1h5.65v6.2h6.15v5.1h-6.15V-9.1q0 1.4.45 2.37.45.98 1.45 1.5 1 .53 2.6.53.4 0 .9-.05t.95-.1V0q-.7.1-1.55.2-.85.1-1.5.1Zm16.39.3q-2.75 0-4.82-.98-2.08-.97-3.23-2.7-1.15-1.72-1.15-4.07 0-2.2.98-3.95.97-1.75 3.02-2.95 2.05-1.2 5.15-1.7l9.4-1.55v4.45l-8.3 1.45q-2.25.4-3.3 1.42-1.05 1.03-1.05 2.63 0 1.55 1.18 2.52 1.17.98 3.02.98 2.3 0 4.03-1 1.72-1 2.67-2.68.95-1.67.95-3.72v-6.95q0-2-1.47-3.28-1.48-1.27-3.93-1.27-2.25 0-3.92 1.17-1.68 1.18-2.48 3.03l-4.7-2.35q.75-2 2.45-3.53 1.7-1.52 3.98-2.37 2.27-.85 4.82-.85 3.2 0 5.68 1.2 2.47 1.2 3.85 3.32 1.37 2.13 1.37 4.93V0h-5.4v-4.9l1.15.15q-.95 1.65-2.42 2.85-1.48 1.2-3.35 1.85-1.88.65-4.18.65Zm26.45-.6h-5.65v-37.85h5.65v25.35l-2.2-.55 13.55-14h7.05l-10.2 10.85L138.14 0h-6.5l-9.5-14.35 3.35-.45-8 8.5 1.8-3.75V0Zm30.8.6q-2.75 0-4.83-.98-2.07-.97-3.22-2.7-1.15-1.72-1.15-4.07 0-2.2.97-3.95.98-1.75 3.03-2.95 2.05-1.2 5.15-1.7l9.4-1.55v4.45l-8.3 1.45q-2.25.4-3.3 1.42-1.05 1.03-1.05 2.63 0 1.55 1.17 2.52 1.18.98 3.03.98 2.3 0 4.02-1 1.73-1 2.68-2.68.95-1.67.95-3.72v-6.95q0-2-1.48-3.28-1.47-1.27-3.92-1.27-2.25 0-3.93 1.17-1.67 1.18-2.47 3.03l-4.7-2.35q.75-2 2.45-3.53 1.7-1.52 3.97-2.37 2.28-.85 4.83-.85 3.2 0 5.67 1.2 2.48 1.2 3.85 3.32 1.38 2.13 1.38 4.93V0h-5.4v-4.9l1.15.15q-.95 1.65-2.43 2.85-1.47 1.2-3.35 1.85-1.87.65-4.17.65Zm32-.3q-4.25 0-6.6-2.4-2.35-2.4-2.35-6.75v-13.1h-4.75v-5.1h.75q1.9 0 2.95-1.1 1.05-1.1 1.05-3v-2.1h5.65v6.2h6.15v5.1h-6.15V-9.1q0 1.4.45 2.37.45.98 1.45 1.5 1 .53 2.6.53.4 0 .9-.05t.95-.1V0q-.7.1-1.55.2-.85.1-1.5.1Zm16.39.3q-2.75 0-4.82-.98-2.08-.97-3.23-2.7-1.15-1.72-1.15-4.07 0-2.2.98-3.95.97-1.75 3.02-2.95 2.05-1.2 5.15-1.7l9.4-1.55v4.45l-8.3 1.45q-2.25.4-3.3 1.42-1.05 1.03-1.05 2.63 0 1.55 1.18 2.52 1.17.98 3.02.98 2.3 0 4.03-1 1.72-1 2.67-2.68.95-1.67.95-3.72v-6.95q0-2-1.47-3.28-1.48-1.27-3.93-1.27-2.25 0-3.92 1.17-1.68 1.18-2.48 3.03l-4.7-2.35q.75-2 2.45-3.53 1.7-1.52 3.98-2.37 2.27-.85 4.82-.85 3.2 0 5.68 1.2 2.47 1.2 3.85 3.32 1.37 2.13 1.37 4.93V0h-5.4v-4.9l1.15.15q-.95 1.65-2.42 2.85-1.48 1.2-3.35 1.85-1.88.65-4.18.65Zm26.45-.6h-5.65v-27.05h5.4v5.45l-.5-.8q.9-2.65 2.9-3.83 2-1.17 4.8-1.17h1.65v5.15h-2.35q-2.8 0-4.52 1.72-1.73 1.73-1.73 4.93V0Zm18.1 0h-5.65v-27.05h5.65V0Zm0-30.75h-5.65v-6.5h5.65v6.5Z" class="wordmark-text-0" data-fill-palette-color="primary"/>
                                        </svg>
                                      </g>
                                    </svg>
                                  </g>
                                </svg>
                              </g>
                            </svg>
                          </g>
                        </svg>
                      </g>
                    </svg>
                  </g>
                </svg>
              </g>
            </svg>
          </g>
        </svg>
      </g>
    </svg>
  </g>
</svg>
