<?xml version="1.0" encoding="UTF-8" standalone="no"?>
<svg
   version="1.1"
   width="1500"
   height="367"
   viewBox="0 0 1500 367"
   id="svg11"
   sodipodi:docname="logo-no-background - Copy.svg"
   inkscape:version="1.3 (0e150ed6c4, 2023-07-21)"
   xmlns:inkscape="http://www.inkscape.org/namespaces/inkscape"
   xmlns:sodipodi="http://sodipodi.sourceforge.net/DTD/sodipodi-0.dtd"
   xmlns="http://www.w3.org/2000/svg"
   xmlns:svg="http://www.w3.org/2000/svg">
  <defs
     id="defs11" />
  <sodipodi:namedview
     id="namedview11"
     pagecolor="#505050"
     bordercolor="#eeeeee"
     borderopacity="1"
     inkscape:showpageshadow="0"
     inkscape:pageopacity="0"
     inkscape:pagecheckerboard="0"
     inkscape:deskcolor="#505050"
     inkscape:zoom="1.18"
     inkscape:cx="750"
     inkscape:cy="183.47458"
     inkscape:window-width="1920"
     inkscape:window-height="1009"
     inkscape:window-x="-8"
     inkscape:window-y="-8"
     inkscape:window-maximized="1"
     inkscape:current-layer="svg11" />
  <g
     transform="translate(-0.90909091,-0.09326526)"
     id="g10">
    <svg
       viewBox="0 0 396 97"
       data-background-color="#ffffff"
       preserveAspectRatio="xMidYMid"
       height="367"
       width="1500"
       version="1.1"
       id="svg10">
      <g
         id="tight-bounds"
         transform="translate(0.24,0.02465049)">
        <svg
           viewBox="0 0 395.52 96.950699"
           height="96.950699"
           width="395.51999"
           version="1.1"
           id="svg9">
          <g
             id="g9">
            <svg
               viewBox="0 0 561.38935 137.60894"
               height="96.950699"
               width="395.51999"
               version="1.1"
               id="svg8">
              <g
                 id="g1">
                <rect
                   width="5.5315771"
                   height="114.29504"
                   x="145.85721"
                   y="11.656956"
                   fill="#0080ff"
                   opacity="1"
                   stroke-width="0"
                   stroke="transparent"
                   fill-opacity="1"
                   class="rect-yte-0"
                   data-fill-palette-color="primary"
                   rx="1%"
                   id="yte-0"
                   data-palette-color="#0080ff"
                   style="fill:#1a1a1a" />
              </g>
              <g
                 transform="translate(165.86935,11.941272)"
                 id="g6">
                <svg
                   viewBox="0 0 395.52 113.7264"
                   height="113.7264"
                   width="395.51999"
                   version="1.1"
                   id="svg5">
                  <g
                     id="textblocktransform">
                    <svg
                       viewBox="0 0 395.52 113.7264"
                       height="113.7264"
                       width="395.51999"
                       id="textblock"
                       version="1.1">
                      <g
                         id="g3">
                        <svg
                           viewBox="0 0 395.52 61.338586"
                           height="61.338585"
                           width="395.51999"
                           version="1.1"
                           id="svg2">
                          <g
                             id="g2">
                            <svg
                               width="395.51999"
                               viewBox="4.9 -38.55 251.78 39.05"
                               height="61.338585"
                               data-palette-color="#0080ff"
                               version="1.1"
                               id="svg1">
                              <path
                                 d="M 34.55,-35 9.4,-10.6 9.1,-16.65 27.45,-35 Z M 10.3,0 H 4.9 v -35 h 5.4 z M 34.85,0 H 28.1 l -13.4,-17.9 4,-3.45 z m 13.2,0.5 v 0 q -3.25,0 -5.93,-1.8 -2.67,-1.8 -4.27,-4.9 -1.6,-3.1 -1.6,-7 v 0 q 0,-3.95 1.62,-7.03 1.63,-3.07 4.4,-4.82 2.78,-1.75 6.23,-1.75 v 0 q 2.05,0 3.75,0.6 1.7,0.6 2.97,1.67 1.28,1.08 2.1,2.48 0.83,1.4 1.03,3 v 0 l -1.15,-0.4 v -6.8 h 5.2 V 0 h -5.2 v -6.25 l 1.2,-0.35 q -0.3,1.35 -1.23,2.62 -0.92,1.28 -2.35,2.28 -1.42,1 -3.15,1.6 -1.72,0.6 -3.62,0.6 z m 1.35,-4.75 v 0 q 2.35,0 4.15,-1.15 1.8,-1.15 2.82,-3.18 1.03,-2.02 1.03,-4.62 v 0 q 0,-2.55 -1.03,-4.55 -1.02,-2 -2.82,-3.15 -1.8,-1.15 -4.15,-1.15 v 0 q -2.3,0 -4.08,1.15 -1.77,1.15 -2.8,3.15 -1.02,2 -1.02,4.55 v 0 q 0,2.6 1.02,4.62 1.03,2.03 2.8,3.18 1.78,1.15 4.08,1.15 z M 78,0 H 72.84 V -32.95 H 78 Z m 6.09,-21.25 H 67.4 v -5 H 84.09 Z M 98.64,0.5 v 0 q -3.25,0 -5.92,-1.8 -2.68,-1.8 -4.28,-4.9 -1.6,-3.1 -1.6,-7 v 0 q 0,-3.95 1.63,-7.03 1.62,-3.07 4.4,-4.82 2.77,-1.75 6.22,-1.75 v 0 q 2.05,0 3.75,0.6 1.7,0.6 2.98,1.67 1.27,1.08 2.1,2.48 0.82,1.4 1.02,3 v 0 l -1.15,-0.4 v -6.8 h 5.2 V 0 h -5.2 v -6.25 l 1.2,-0.35 q -0.3,1.35 -1.22,2.62 -0.93,1.28 -2.35,2.28 -1.43,1 -3.15,1.6 -1.73,0.6 -3.63,0.6 z m 1.35,-4.75 v 0 q 2.35,0 4.15,-1.15 1.8,-1.15 2.83,-3.18 1.02,-2.02 1.02,-4.62 v 0 q 0,-2.55 -1.02,-4.55 -1.03,-2 -2.83,-3.15 -1.8,-1.15 -4.15,-1.15 v 0 q -2.3,0 -4.07,1.15 -1.78,1.15 -2.8,3.15 -1.03,2 -1.03,4.55 v 0 q 0,2.6 1.03,4.62 1.02,2.03 2.8,3.18 1.77,1.15 4.07,1.15 z m 44.15,-22 -19.25,18.05 -0.25,-5.6 12.55,-12.45 z M 125.34,0 h -5.15 v -37 h 5.15 z m 19.15,0 h -6.6 l -9.9,-11.55 3.65,-3.35 z m 13.1,0.5 v 0 q -3.25,0 -5.93,-1.8 -2.67,-1.8 -4.27,-4.9 -1.6,-3.1 -1.6,-7 v 0 q 0,-3.95 1.62,-7.03 1.63,-3.07 4.4,-4.82 2.78,-1.75 6.23,-1.75 v 0 q 2.05,0 3.75,0.6 1.7,0.6 2.97,1.67 1.28,1.08 2.1,2.48 0.83,1.4 1.03,3 v 0 l -1.15,-0.4 v -6.8 h 5.2 V 0 h -5.2 v -6.25 l 1.2,-0.35 q -0.3,1.35 -1.23,2.62 -0.92,1.28 -2.35,2.28 -1.42,1 -3.15,1.6 -1.72,0.6 -3.62,0.6 z m 1.35,-4.75 v 0 q 2.35,0 4.15,-1.15 1.8,-1.15 2.82,-3.18 1.03,-2.02 1.03,-4.62 v 0 q 0,-2.55 -1.03,-4.55 -1.02,-2 -2.82,-3.15 -1.8,-1.15 -4.15,-1.15 v 0 q -2.3,0 -4.08,1.15 -1.77,1.15 -2.8,3.15 -1.02,2 -1.02,4.55 v 0 q 0,2.6 1.02,4.62 1.03,2.03 2.8,3.18 1.78,1.15 4.08,1.15 z M 187.54,0 h -5.15 v -32.95 h 5.15 z m 6.1,-21.25 h -16.7 v -5 h 16.7 z M 208.18,0.5 v 0 q -3.25,0 -5.92,-1.8 -2.68,-1.8 -4.28,-4.9 -1.6,-3.1 -1.6,-7 v 0 q 0,-3.95 1.63,-7.03 1.62,-3.07 4.4,-4.82 2.77,-1.75 6.22,-1.75 v 0 q 2.05,0 3.75,0.6 1.7,0.6 2.98,1.67 1.27,1.08 2.1,2.48 0.82,1.4 1.02,3 v 0 l -1.15,-0.4 v -6.8 h 5.2 V 0 h -5.2 v -6.25 l 1.2,-0.35 q -0.3,1.35 -1.22,2.62 -0.93,1.28 -2.35,2.28 -1.43,1 -3.15,1.6 -1.73,0.6 -3.63,0.6 z m 1.35,-4.75 v 0 q 2.35,0 4.15,-1.15 1.8,-1.15 2.83,-3.18 1.02,-2.02 1.02,-4.62 v 0 q 0,-2.55 -1.02,-4.55 -1.03,-2 -2.83,-3.15 -1.8,-1.15 -4.15,-1.15 v 0 q -2.3,0 -4.07,1.15 -1.78,1.15 -2.8,3.15 -1.03,2 -1.03,4.55 v 0 q 0,2.6 1.03,4.62 1.02,2.03 2.8,3.18 1.77,1.15 4.07,1.15 z M 234.93,0 h -5.2 v -26.25 h 5.2 V -18 l -0.5,-2 q 0.55,-1.9 1.88,-3.45 1.32,-1.55 3.05,-2.45 1.72,-0.9 3.57,-0.9 v 0 q 0.85,0 1.63,0.15 0.77,0.15 1.22,0.35 v 0 l -1.35,5.6 q -0.6,-0.25 -1.32,-0.43 -0.73,-0.17 -1.43,-0.17 v 0 q -1.35,0 -2.57,0.52 -1.23,0.53 -2.15,1.45 -0.93,0.93 -1.48,2.15 -0.55,1.23 -0.55,2.68 v 0 z m 20.95,0 h -5.15 v -26.25 h 5.15 z m -2.65,-32.05 v 0 q -1.65,0 -2.55,-0.85 -0.9,-0.85 -0.9,-2.4 v 0 q 0,-1.45 0.92,-2.35 0.93,-0.9 2.53,-0.9 v 0 q 1.65,0 2.55,0.85 0.9,0.85 0.9,2.4 v 0 q 0,1.45 -0.93,2.35 -0.92,0.9 -2.52,0.9 z"
                                 opacity="1"
                                 fill="#0080ff"
                                 class="wordmark-text-0"
                                 data-fill-palette-color="primary"
                                 id="text-0"
                                 style="fill:#1a1a1a" />
                            </svg>
                          </g>
                        </svg>
                      </g>
                      <g
                         transform="translate(0,75.819154)"
                         id="g5">
                        <svg
                           viewBox="0 0 395.52 37.907246"
                           height="37.907246"
                           width="395.51999"
                           version="1.1"
                           id="svg4">
                          <g
                             id="g4">
                            <svg
                               width="395.51999"
                               viewBox="1.6 -35.95 495.61 47.5"
                               height="37.907246"
                               data-palette-color="#0080ff"
                               version="1.1"
                               id="svg3">
                              <path
                                 d="m 10.4,0.6 v 0 Q 7.7,0.6 5.45,-0.38 3.2,-1.35 1.6,-2.7 v 0 l 1.3,-1.65 q 1.55,1.3 3.3,2.17 1.75,0.88 4.35,0.88 v 0 q 2.85,0 4.28,-1.43 1.42,-1.42 1.42,-3.32 v 0 q 0,-1.1 -0.52,-1.95 -0.53,-0.85 -1.38,-1.45 -0.85,-0.6 -1.87,-1.05 -1.03,-0.45 -2.08,-0.85 v 0 Q 9.05,-11.85 7.68,-12.4 6.3,-12.95 5.2,-13.73 4.1,-14.5 3.43,-15.58 2.75,-16.65 2.75,-18.2 v 0 q 0,-1.3 0.5,-2.48 0.5,-1.17 1.5,-2.05 1,-0.87 2.43,-1.37 1.42,-0.5 3.32,-0.5 v 0 q 1.9,0 3.73,0.7 1.82,0.7 3.12,1.8 v 0 l -1.2,1.55 q -1.2,-0.9 -2.55,-1.53 -1.35,-0.62 -3.2,-0.62 v 0 q -1.4,0 -2.4,0.37 -1,0.38 -1.67,0.98 -0.68,0.6 -1,1.4 -0.33,0.8 -0.33,1.6 v 0 q 0,1.05 0.48,1.78 0.47,0.72 1.27,1.27 0.8,0.55 1.83,0.97 1.02,0.43 2.07,0.83 v 0 q 1.4,0.55 2.8,1.1 1.4,0.55 2.53,1.35 1.12,0.8 1.82,1.97 0.7,1.18 0.7,2.93 v 0 q 0,1.35 -0.52,2.57 -0.53,1.23 -1.58,2.15 -1.05,0.93 -2.55,1.48 -1.5,0.55 -3.45,0.55 z m 27.9,0 v 0 Q 36.55,0.6 35.4,0.08 34.25,-0.45 33.55,-1.4 32.85,-2.35 32.57,-3.7 32.3,-5.05 32.3,-6.65 v 0 -15.45 h -3.75 v -1.7 l 3.8,-0.2 0.3,-6.95 h 1.9 V -24 h 6.95 v 1.9 h -6.95 v 15.65 q 0,1.15 0.17,2.07 0.18,0.93 0.63,1.6 0.45,0.68 1.22,1.05 0.78,0.38 2.03,0.38 v 0 q 0.7,0 1.52,-0.23 0.83,-0.22 1.48,-0.52 v 0 l 0.6,1.8 Q 41.15,0.1 40.1,0.35 39.05,0.6 38.3,0.6 Z m 25.15,0 v 0 Q 61.3,0.6 59.35,-0.25 57.4,-1.1 55.92,-2.7 54.45,-4.3 53.57,-6.63 52.7,-8.95 52.7,-11.95 v 0 q 0,-3 0.87,-5.37 0.88,-2.38 2.35,-3.98 1.48,-1.6 3.43,-2.45 1.95,-0.85 4.1,-0.85 v 0 q 2.15,0 4.12,0.85 1.98,0.85 3.45,2.45 1.48,1.6 2.35,3.98 0.88,2.37 0.88,5.37 v 0 q 0,3 -0.88,5.32 -0.87,2.33 -2.35,3.93 -1.47,1.6 -3.45,2.45 Q 65.6,0.6 63.45,0.6 Z m 0,-1.95 v 0 q 1.8,0 3.37,-0.78 1.58,-0.77 2.7,-2.17 1.13,-1.4 1.78,-3.35 0.65,-1.95 0.65,-4.3 v 0 q 0,-2.4 -0.65,-4.35 -0.65,-1.95 -1.78,-3.38 -1.12,-1.42 -2.7,-2.2 -1.57,-0.77 -3.37,-0.77 v 0 q -1.8,0 -3.35,0.77 -1.55,0.78 -2.68,2.2 -1.12,1.43 -1.77,3.38 -0.65,1.95 -0.65,4.35 v 0 q 0,2.35 0.65,4.3 0.65,1.95 1.77,3.35 1.13,1.4 2.68,2.17 1.55,0.78 3.35,0.78 z M 91.54,0 h -2.2 v -24 h 1.9 l 0.2,4.45 h 0.15 q 1.2,-2.25 2.93,-3.65 1.72,-1.4 3.87,-1.4 v 0 q 0.7,0 1.25,0.1 0.55,0.1 1.15,0.4 v 0 l -0.5,2 q -0.6,-0.25 -1.05,-0.33 -0.45,-0.07 -1.15,-0.07 v 0 q -1.6,0 -3.37,1.37 -1.78,1.38 -3.18,4.78 v 0 z m 22.4,10.95 v 0 q -1.35,0 -2.45,-0.5 v 0 l 0.5,-1.95 q 0.4,0.15 0.9,0.28 0.5,0.12 1.05,0.12 v 0 q 2.25,0 3.75,-1.8 1.5,-1.8 2.4,-4.55 v 0 l 0.65,-2.1 -9.85,-24.45 h 2.4 l 5.8,15.1 q 0.55,1.5 1.23,3.3 0.67,1.8 1.37,3.4 v 0 h 0.2 q 0.55,-1.6 1.13,-3.4 0.57,-1.8 1.07,-3.3 v 0 l 5.15,-15.1 h 2.25 l -9.5,27 q -0.5,1.5 -1.22,2.95 -0.73,1.45 -1.7,2.55 -0.98,1.1 -2.25,1.78 -1.28,0.67 -2.88,0.67 z M 167.74,0.6 v 0 q -1.45,0 -2.7,-0.4 -1.25,-0.4 -2.2,-1.2 -0.95,-0.8 -1.5,-2.05 -0.55,-1.25 -0.55,-2.95 v 0 q 0,-4 3.72,-6.08 3.73,-2.07 11.78,-2.97 v 0 q 0,-1.35 -0.2,-2.73 -0.2,-1.37 -0.85,-2.45 -0.65,-1.07 -1.75,-1.75 -1.1,-0.67 -2.9,-0.67 v 0 q -2.4,0 -4.4,0.95 -2,0.95 -3.25,1.85 v 0 l -1,-1.65 q 0.65,-0.45 1.57,-1 0.93,-0.55 2.08,-1 1.15,-0.45 2.5,-0.78 1.35,-0.32 2.8,-0.32 v 0 q 2.1,0 3.55,0.72 1.45,0.73 2.35,1.98 0.9,1.25 1.3,2.92 0.4,1.68 0.4,3.63 v 0 V 0 h -1.9 l -0.2,-3.1 h -0.15 q -1.85,1.45 -3.98,2.57 -2.12,1.13 -4.52,1.13 z m 0.4,-1.9 v 0 q 2.1,0 4,-1 1.9,-1 4.15,-2.9 v 0 -8.15 q -3.7,0.45 -6.25,1.1 -2.55,0.65 -4.1,1.55 -1.55,0.9 -2.23,2.05 -0.67,1.15 -0.67,2.55 v 0 q 0,1.3 0.4,2.2 0.4,0.9 1.1,1.47 0.7,0.58 1.62,0.85 0.93,0.28 1.98,0.28 z M 197.13,0 h -2.2 v -24 h 1.9 l 0.2,3.7 h 0.15 q 1.85,-1.85 3.8,-3.08 1.95,-1.22 4.45,-1.22 v 0 q 3.75,0 5.5,2.25 1.75,2.25 1.75,6.95 v 0 V 0 h -2.2 v -15.1 q 0,-3.85 -1.27,-5.68 -1.28,-1.82 -4.23,-1.82 v 0 q -2.15,0 -3.9,1.12 -1.75,1.13 -3.95,3.38 v 0 z m 40.25,0.6 v 0 q -4.55,0 -7.25,-3.23 -2.7,-3.22 -2.7,-9.32 v 0 q 0,-2.9 0.85,-5.25 0.85,-2.35 2.33,-4 1.47,-1.65 3.4,-2.53 1.92,-0.87 4.07,-0.87 v 0 q 2.2,0 3.83,0.77 1.62,0.78 3.42,2.18 v 0 l -0.1,-4.4 v -9.9 h 2.2 V 0 h -1.9 l -0.2,-3.1 h -0.15 q -1.45,1.45 -3.42,2.57 -1.98,1.13 -4.38,1.13 z m 0.3,-1.95 v 0 q 2,0 3.83,-1.03 1.82,-1.02 3.72,-2.92 v 0 -14.25 q -1.9,-1.7 -3.57,-2.4 -1.68,-0.7 -3.43,-0.7 v 0 q -1.8,0 -3.35,0.82 -1.55,0.83 -2.67,2.25 -1.13,1.43 -1.78,3.4 -0.65,1.98 -0.65,4.23 v 0 q 0,2.4 0.53,4.35 0.52,1.95 1.52,3.32 1,1.38 2.48,2.15 1.47,0.78 3.37,0.78 z m 47.7,1.95 v 0 q -2.95,0 -2.95,-3.8 v 0 -32.75 h 2.2 V -2.9 q 0,0.8 0.3,1.17 0.3,0.38 0.75,0.38 v 0 q 0.15,0 0.32,0 0.18,0 0.58,-0.1 v 0 l 0.4,1.8 q -0.35,0.1 -0.7,0.18 -0.35,0.07 -0.9,0.07 z m 25.89,0 v 0 q -2.3,0 -4.32,-0.85 -2.03,-0.85 -3.53,-2.48 -1.5,-1.62 -2.37,-3.95 -0.88,-2.32 -0.88,-5.27 v 0 q 0,-2.95 0.88,-5.3 0.87,-2.35 2.35,-3.98 1.47,-1.62 3.35,-2.5 1.87,-0.87 3.87,-0.87 v 0 q 4.3,0 6.75,2.9 2.45,2.9 2.45,8.2 v 0 q 0,0.45 0,0.9 0,0.45 -0.1,0.9 v 0 h -17.3 q 0.05,2.25 0.7,4.17 0.65,1.93 1.83,3.3 1.17,1.38 2.82,2.15 1.65,0.78 3.7,0.78 v 0 q 1.95,0 3.53,-0.58 1.57,-0.57 2.92,-1.57 v 0 l 0.9,1.7 q -1.45,0.85 -3.17,1.6 -1.73,0.75 -4.38,0.75 z m -8.85,-14.1 v 0 h 15.3 q 0,-4.65 -1.9,-6.93 -1.9,-2.27 -5.15,-2.27 v 0 q -1.55,0 -2.95,0.62 -1.4,0.63 -2.52,1.83 -1.13,1.2 -1.85,2.9 -0.73,1.7 -0.93,3.85 z m 36.3,14.1 v 0 q -1.45,0 -2.7,-0.4 -1.25,-0.4 -2.2,-1.2 -0.95,-0.8 -1.5,-2.05 -0.55,-1.25 -0.55,-2.95 v 0 q 0,-4 3.73,-6.08 3.72,-2.07 11.77,-2.97 v 0 q 0,-1.35 -0.2,-2.73 -0.2,-1.37 -0.85,-2.45 -0.65,-1.07 -1.75,-1.75 -1.1,-0.67 -2.9,-0.67 v 0 q -2.4,0 -4.4,0.95 -2,0.95 -3.25,1.85 v 0 l -1,-1.65 q 0.65,-0.45 1.58,-1 0.92,-0.55 2.07,-1 1.15,-0.45 2.5,-0.78 1.35,-0.32 2.8,-0.32 v 0 q 2.1,0 3.55,0.72 1.45,0.73 2.35,1.98 0.9,1.25 1.3,2.92 0.4,1.68 0.4,3.63 v 0 V 0 h -1.9 l -0.2,-3.1 h -0.15 q -1.85,1.45 -3.97,2.57 -2.13,1.13 -4.53,1.13 z m 0.4,-1.9 v 0 q 2.1,0 4,-1 1.9,-1 4.15,-2.9 v 0 -8.15 q -3.7,0.45 -6.25,1.1 -2.55,0.65 -4.1,1.55 -1.55,0.9 -2.22,2.05 -0.68,1.15 -0.68,2.55 v 0 q 0,1.3 0.4,2.2 0.4,0.9 1.1,1.47 0.7,0.58 1.63,0.85 0.92,0.28 1.97,0.28 z m 29,1.3 h -2.2 v -24 h 1.9 l 0.2,4.45 h 0.15 q 1.2,-2.25 2.92,-3.65 1.73,-1.4 3.88,-1.4 v 0 q 0.7,0 1.25,0.1 0.55,0.1 1.15,0.4 v 0 l -0.5,2 q -0.6,-0.25 -1.05,-0.33 -0.45,-0.07 -1.15,-0.07 v 0 q -1.6,0 -3.38,1.37 -1.77,1.38 -3.17,4.78 v 0 z m 23.75,0 h -2.2 v -24 h 1.9 l 0.2,3.7 h 0.15 q 1.85,-1.85 3.8,-3.08 1.95,-1.22 4.45,-1.22 v 0 q 3.75,0 5.5,2.25 1.75,2.25 1.75,6.95 v 0 V 0 h -2.2 v -15.1 q 0,-3.85 -1.28,-5.68 -1.27,-1.82 -4.22,-1.82 v 0 q -2.15,0 -3.9,1.12 -1.75,1.13 -3.95,3.38 v 0 z m 34.49,0 h -2.2 v -24 h 2.2 z m -1.05,-29.8 v 0 q -0.85,0 -1.42,-0.55 -0.58,-0.55 -0.58,-1.4 v 0 q 0,-0.95 0.58,-1.48 0.57,-0.52 1.42,-0.52 v 0 q 0.85,0 1.43,0.52 0.57,0.53 0.57,1.48 v 0 q 0,0.85 -0.57,1.4 -0.58,0.55 -1.43,0.55 z M 445.71,0 h -2.2 v -24 h 1.9 l 0.2,3.7 h 0.15 q 1.85,-1.85 3.8,-3.08 1.95,-1.22 4.45,-1.22 v 0 q 3.75,0 5.5,2.25 1.75,2.25 1.75,6.95 v 0 V 0 h -2.2 v -15.1 q 0,-3.85 -1.27,-5.68 -1.28,-1.82 -4.23,-1.82 v 0 q -2.15,0 -3.9,1.12 -1.75,1.13 -3.95,3.38 v 0 z m 40.15,11.55 v 0 q -4.55,0 -7.2,-1.8 -2.65,-1.8 -2.65,-4.85 v 0 q 0,-1.6 0.95,-3.1 0.95,-1.5 2.6,-2.7 v 0 -0.2 q -0.9,-0.55 -1.5,-1.5 -0.6,-0.95 -0.6,-2.35 v 0 q 0,-1.6 0.9,-2.73 0.9,-1.12 1.7,-1.67 v 0 -0.2 q -1.15,-1 -2.08,-2.7 -0.92,-1.7 -0.92,-3.9 v 0 q 0,-1.85 0.65,-3.4 0.65,-1.55 1.8,-2.68 1.15,-1.12 2.7,-1.75 1.55,-0.62 3.3,-0.62 v 0 q 1,0 1.8,0.17 0.8,0.18 1.35,0.43 v 0 h 8.15 v 1.85 h -5.6 q 1.15,1 1.9,2.57 0.75,1.58 0.75,3.48 v 0 q 0,1.85 -0.65,3.4 -0.65,1.55 -1.78,2.67 -1.12,1.13 -2.65,1.75 -1.52,0.63 -3.27,0.63 v 0 q -1,0 -2.08,-0.25 -1.07,-0.25 -1.92,-0.75 v 0 q -0.8,0.65 -1.38,1.45 -0.57,0.8 -0.57,2 v 0 q 0,1.3 0.95,2.22 0.95,0.93 3.65,0.93 v 0 h 5.15 q 4.05,0 5.97,1.32 1.93,1.33 1.93,4.18 v 0 q 0,1.55 -0.8,3.03 -0.8,1.47 -2.28,2.6 -1.47,1.12 -3.57,1.8 -2.1,0.67 -4.7,0.67 z M 485.51,-9.4 v 0 q 1.25,0 2.37,-0.48 1.13,-0.47 1.98,-1.37 0.85,-0.9 1.35,-2.15 0.5,-1.25 0.5,-2.75 v 0 q 0,-1.5 -0.5,-2.75 -0.5,-1.25 -1.33,-2.1 -0.82,-0.85 -1.97,-1.33 -1.15,-0.47 -2.4,-0.47 v 0 q -1.3,0 -2.43,0.47 -1.12,0.48 -1.97,1.33 -0.85,0.85 -1.35,2.07 -0.5,1.23 -0.5,2.78 v 0 q 0,1.5 0.5,2.75 0.5,1.25 1.37,2.15 0.88,0.9 2,1.37 1.13,0.48 2.38,0.48 z m 0.6,19.15 v 0 q 2,0 3.65,-0.53 1.65,-0.52 2.8,-1.37 1.15,-0.85 1.77,-1.92 0.63,-1.08 0.63,-2.23 v 0 q 0,-2 -1.43,-2.82 -1.42,-0.83 -4.12,-0.83 v 0 h -5.15 q -0.4,0 -1.23,-0.08 -0.82,-0.07 -1.77,-0.32 v 0 q -1.65,1.15 -2.4,2.45 -0.75,1.3 -0.75,2.6 v 0 q 0,2.25 2.07,3.65 2.08,1.4 5.93,1.4 z"
                                 opacity="1"
                                 fill="#0080ff"
                                 class="slogan-text-1"
                                 data-fill-palette-color="secondary"
                                 id="text-1"
                                 style="fill:#1a1a1a" />
                            </svg>
                          </g>
                        </svg>
                      </g>
                    </svg>
                  </g>
                </svg>
              </g>
              <g
                 id="g8">
                <svg
                   viewBox="0 0 131.37664 137.60894"
                   height="137.60895"
                   width="131.37663"
                   version="1.1"
                   id="svg7">
                  <g
                     id="g7">
                    <svg
                       version="1.0"
                       x="0"
                       y="0"
                       viewBox="0 0 95.471 100"
                       enable-background="new 0 0 95.471 100"
                       xml:space="preserve"
                       id="icon-0"
                       width="131.37663"
                       height="137.60895"
                       class="icon-icon-0"
                       data-fill-palette-color="accent"><path
                         d="M 47.735,0 C 47.652,2.825 45.997,13.412 27.936,30.934 10.554,47.797 2.439,49.824 0,50 2.439,50.178 10.554,52.204 27.936,69.066 45.997,86.589 47.652,97.177 47.735,100 47.818,97.177 49.474,86.589 67.533,69.066 84.917,52.204 93.031,50.178 95.471,50 93.032,49.824 84.917,47.797 67.533,30.934 49.475,13.412 47.819,2.825 47.735,0"
                         fill="#010c80"
                         data-fill-palette-color="accent"
                         id="path6"
                         style="fill:#1a1a1a" /></svg>
                  </g>
                </svg>
              </g>
            </svg>
          </g>
          <defs
             id="defs9" />
        </svg>
        <rect
           width="395.51999"
           height="96.950699"
           fill="none"
           stroke="none"
           visibility="hidden"
           id="rect9"
           x="0"
           y="0" />
      </g>
    </svg>
  </g>
</svg>
