<svg xmlns="http://www.w3.org/2000/svg" version="1.1" xmlns:xlink="http://www.w3.org/1999/xlink" xmlns:svgjs="http://svgjs.dev/svgjs" width="1500" height="1687" viewBox="0 0 1500 1687"><g transform="matrix(1,0,0,1,0,0)"><svg viewBox="0 0 320 360" data-background-color="#ffffff" preserveAspectRatio="xMidYMid meet" height="1687" width="1500" xmlns="http://www.w3.org/2000/svg" xmlns:xlink="http://www.w3.org/1999/xlink"><g id="tight-bounds" transform="matrix(1,0,0,1,0,0)"><svg viewBox="0 0 320 360" height="360" width="320"><g><svg></svg></g><g><svg viewBox="0 0 320 360" height="360" width="320"><g><path d="M320 187.111c0-45.764-20.238-86.866-52.203-114.908-28.043-31.964-69.145-52.203-114.908-52.203-84.302 0-152.889 68.587-152.889 152.889 0 45.753 20.231 86.848 52.185 114.891 28.043 31.975 69.152 52.22 114.926 52.22 0.299 0 0.59-0.021 0.889-0.021 0.299 0 0.59 0.021 0.889 0.021 83.456 0 151.111-67.655 151.111-151.111 0-0.299-0.021-0.59-0.021-0.889 0-0.299 0.021-0.59 0.021-0.889zM59.833 263.097c-15.093-21.255-24.071-47.143-24.256-75.097 0.48-72.928 59.492-131.943 132.423-132.423 27.954 0.185 53.845 9.163 75.097 24.256 24.366 23.627 39.57 56.64 39.57 93.056 0 71.559-58.219 129.778-129.778 129.778-36.416 0-69.429-15.204-93.056-39.57zM3.556 172.889c0-82.343 66.99-149.333 149.333-149.333 35.051 0 67.292 12.167 92.8 32.462-22.98-13.824-49.863-21.796-78.578-21.796-84.302 0-152.889 68.587-152.889 152.889 0 28.708 7.968 55.584 21.785 78.56-20.288-25.5-32.452-57.739-32.451-92.782zM167.111 318.667c-35.84 0-68.363-14.418-92.107-37.743 21.952 15.89 48.864 25.298 77.885 25.298 73.522 0 133.333-59.812 133.333-133.333 0-29.02-9.408-55.932-25.298-77.885 23.324 23.744 37.742 56.267 37.743 92.107 0 72.54-59.015 131.556-131.556 131.556z" fill="#7dd3fc" fill-rule="nonzero" stroke="none" stroke-width="1" stroke-linecap="butt" stroke-linejoin="miter" stroke-miterlimit="10" stroke-dasharray="" stroke-dashoffset="0" font-family="none" font-weight="none" font-size="none" text-anchor="none" style="mix-blend-mode: normal" data-fill-palette-color="tertiary"></path></g><g transform="matrix(1,0,0,1,64,152.0013720985484)"><svg viewBox="0 0 192 55.99725580290322" height="55.99725580290322" width="192"><g><svg viewBox="0 0 192 55.99725580290322" height="55.99725580290322" width="192"><g><svg viewBox="0 0 192 55.99725580290322" height="55.99725580290322" width="192"><g><svg viewBox="0 0 192 55.99725580290322" height="55.99725580290322" width="192"><g id="textblocktransform"><svg viewBox="0 0 192 55.99725580290322" height="55.99725580290322" width="192" id="textblock"><g><svg viewBox="0 0 192 30.862876254180602" height="30.862876254180602" width="192"><g transform="matrix(1,0,0,1,0,0)"><svg width="192" viewBox="3.85 -37.85 239.18 38.45" height="30.862876254180602" data-palette-color="#7dd3fc"><path d="M9.75 0L3.85 0 3.85-37.25 9.75-37.25 9.75-17.05 8.2-17.65 25.05-37.25 32.4-37.25 17.5-19.8 17.8-24 33 0 26.05 0 15.15-17.05 9.75-10.75 9.75 0ZM44.45 0.6L44.45 0.6Q41.7 0.6 39.62-0.38 37.55-1.35 36.4-3.08 35.25-4.8 35.25-7.15L35.25-7.15Q35.25-9.35 36.22-11.1 37.2-12.85 39.25-14.05 41.3-15.25 44.4-15.75L44.4-15.75 53.8-17.3 53.8-12.85 45.5-11.4Q43.25-11 42.2-9.98 41.15-8.95 41.15-7.35L41.15-7.35Q41.15-5.8 42.32-4.83 43.5-3.85 45.35-3.85L45.35-3.85Q47.65-3.85 49.37-4.85 51.1-5.85 52.05-7.53 53-9.2 53-11.25L53-11.25 53-18.2Q53-20.2 51.52-21.48 50.05-22.75 47.6-22.75L47.6-22.75Q45.35-22.75 43.67-21.58 42-20.4 41.2-18.55L41.2-18.55 36.5-20.9Q37.25-22.9 38.95-24.43 40.65-25.95 42.92-26.8 45.2-27.65 47.75-27.65L47.75-27.65Q50.95-27.65 53.42-26.45 55.9-25.25 57.27-23.13 58.65-21 58.65-18.2L58.65-18.2 58.65 0 53.25 0 53.25-4.9 54.4-4.75Q53.45-3.1 51.97-1.9 50.5-0.7 48.62-0.05 46.75 0.6 44.45 0.6ZM76.45 0.3L76.45 0.3Q72.2 0.3 69.85-2.1 67.5-4.5 67.5-8.85L67.5-8.85 67.5-21.95 62.75-21.95 62.75-27.05 63.5-27.05Q65.4-27.05 66.45-28.15 67.5-29.25 67.5-31.15L67.5-31.15 67.5-33.25 73.15-33.25 73.15-27.05 79.3-27.05 79.3-21.95 73.15-21.95 73.15-9.1Q73.15-7.7 73.6-6.73 74.05-5.75 75.05-5.23 76.05-4.7 77.65-4.7L77.65-4.7Q78.05-4.7 78.55-4.75 79.05-4.8 79.5-4.85L79.5-4.85 79.5 0Q78.8 0.1 77.95 0.2 77.1 0.3 76.45 0.3ZM92.84 0.6L92.84 0.6Q90.09 0.6 88.02-0.38 85.94-1.35 84.79-3.08 83.64-4.8 83.64-7.15L83.64-7.15Q83.64-9.35 84.62-11.1 85.59-12.85 87.64-14.05 89.69-15.25 92.79-15.75L92.79-15.75 102.19-17.3 102.19-12.85 93.89-11.4Q91.64-11 90.59-9.98 89.54-8.95 89.54-7.35L89.54-7.35Q89.54-5.8 90.72-4.83 91.89-3.85 93.74-3.85L93.74-3.85Q96.04-3.85 97.77-4.85 99.49-5.85 100.44-7.53 101.39-9.2 101.39-11.25L101.39-11.25 101.39-18.2Q101.39-20.2 99.92-21.48 98.44-22.75 95.99-22.75L95.99-22.75Q93.74-22.75 92.07-21.58 90.39-20.4 89.59-18.55L89.59-18.55 84.89-20.9Q85.64-22.9 87.34-24.43 89.04-25.95 91.32-26.8 93.59-27.65 96.14-27.65L96.14-27.65Q99.34-27.65 101.82-26.45 104.29-25.25 105.67-23.13 107.04-21 107.04-18.2L107.04-18.2 107.04 0 101.64 0 101.64-4.9 102.79-4.75Q101.84-3.1 100.37-1.9 98.89-0.7 97.02-0.05 95.14 0.6 92.84 0.6ZM119.29 0L113.64 0 113.64-37.85 119.29-37.85 119.29-12.5 117.09-13.05 130.64-27.05 137.69-27.05 127.49-16.2 138.14 0 131.64 0 122.14-14.35 125.49-14.8 117.49-6.3 119.29-10.05 119.29 0ZM150.09 0.6L150.09 0.6Q147.34 0.6 145.26-0.38 143.19-1.35 142.04-3.08 140.89-4.8 140.89-7.15L140.89-7.15Q140.89-9.35 141.86-11.1 142.84-12.85 144.89-14.05 146.94-15.25 150.04-15.75L150.04-15.75 159.44-17.3 159.44-12.85 151.14-11.4Q148.89-11 147.84-9.98 146.79-8.95 146.79-7.35L146.79-7.35Q146.79-5.8 147.96-4.83 149.14-3.85 150.99-3.85L150.99-3.85Q153.29-3.85 155.01-4.85 156.74-5.85 157.69-7.53 158.64-9.2 158.64-11.25L158.64-11.25 158.64-18.2Q158.64-20.2 157.16-21.48 155.69-22.75 153.24-22.75L153.24-22.75Q150.99-22.75 149.31-21.58 147.64-20.4 146.84-18.55L146.84-18.55 142.14-20.9Q142.89-22.9 144.59-24.43 146.29-25.95 148.56-26.8 150.84-27.65 153.39-27.65L153.39-27.65Q156.59-27.65 159.06-26.45 161.54-25.25 162.91-23.13 164.29-21 164.29-18.2L164.29-18.2 164.29 0 158.89 0 158.89-4.9 160.04-4.75Q159.09-3.1 157.61-1.9 156.14-0.7 154.26-0.05 152.39 0.6 150.09 0.6ZM182.09 0.3L182.09 0.3Q177.84 0.3 175.49-2.1 173.14-4.5 173.14-8.85L173.14-8.85 173.14-21.95 168.39-21.95 168.39-27.05 169.14-27.05Q171.04-27.05 172.09-28.15 173.14-29.25 173.14-31.15L173.14-31.15 173.14-33.25 178.79-33.25 178.79-27.05 184.94-27.05 184.94-21.95 178.79-21.95 178.79-9.1Q178.79-7.7 179.24-6.73 179.69-5.75 180.69-5.23 181.69-4.7 183.29-4.7L183.29-4.7Q183.69-4.7 184.19-4.75 184.69-4.8 185.14-4.85L185.14-4.85 185.14 0Q184.44 0.1 183.59 0.2 182.74 0.3 182.09 0.3ZM198.48 0.6L198.48 0.6Q195.73 0.6 193.66-0.38 191.58-1.35 190.43-3.08 189.28-4.8 189.28-7.15L189.28-7.15Q189.28-9.35 190.26-11.1 191.23-12.85 193.28-14.05 195.33-15.25 198.43-15.75L198.43-15.75 207.83-17.3 207.83-12.85 199.53-11.4Q197.28-11 196.23-9.98 195.18-8.95 195.18-7.35L195.18-7.35Q195.18-5.8 196.36-4.83 197.53-3.85 199.38-3.85L199.38-3.85Q201.68-3.85 203.41-4.85 205.13-5.85 206.08-7.53 207.03-9.2 207.03-11.25L207.03-11.25 207.03-18.2Q207.03-20.2 205.56-21.48 204.08-22.75 201.63-22.75L201.63-22.75Q199.38-22.75 197.71-21.58 196.03-20.4 195.23-18.55L195.23-18.55 190.53-20.9Q191.28-22.9 192.98-24.43 194.68-25.95 196.96-26.8 199.23-27.65 201.78-27.65L201.78-27.65Q204.98-27.65 207.46-26.45 209.93-25.25 211.31-23.13 212.68-21 212.68-18.2L212.68-18.2 212.68 0 207.28 0 207.28-4.9 208.43-4.75Q207.48-3.1 206.01-1.9 204.53-0.7 202.66-0.05 200.78 0.6 198.48 0.6ZM224.93 0L219.28 0 219.28-27.05 224.68-27.05 224.68-21.6 224.18-22.4Q225.08-25.05 227.08-26.23 229.08-27.4 231.88-27.4L231.88-27.4 233.53-27.4 233.53-22.25 231.18-22.25Q228.38-22.25 226.66-20.53 224.93-18.8 224.93-15.6L224.93-15.6 224.93 0ZM243.03 0L237.38 0 237.38-27.05 243.03-27.05 243.03 0ZM243.03-30.75L237.38-30.75 237.38-37.25 243.03-37.25 243.03-30.75Z" opacity="1" transform="matrix(1,0,0,1,0,0)" fill="#7dd3fc" class="wordmark-text-0" data-fill-palette-color="primary" id="text-0"></path></svg></g></svg></g><g transform="matrix(1,0,0,1,24,38.14886062876254)"><svg viewBox="0 0 144 17.848395174140677" height="17.848395174140677" width="144"><g transform="matrix(1,0,0,1,0,0)"><svg width="144" viewBox="2.1499999999999995 -40.8 439.26000000000005 54.449999999999996" height="17.848395174140677" data-palette-color="#7dd3fc"><path d="M32.65 0L9.45 0 2.3 0.15Q2-0.75 2.3-1.65L2.3-1.65 6.45-2.2Q6.65-4.75 6.65-8.1L6.65-8.1 6.65-37.6 2.6-38.1Q2.4-38.85 2.6-39.95L2.6-39.95Q5.35-39.75 9.45-39.75L9.45-39.75Q13.1-39.75 16.35-39.9L16.35-39.9Q16.65-39 16.35-38.1L16.35-38.1 12.2-37.5Q12-35.6 12-31.65L12-31.65 12-2.55 28.5-2.55 30.85-11.6Q31.6-11.8 32.7-11.6L32.7-11.6 32.65 0ZM57-14.1L57-14.1 41.3-14.1Q40.85-1.35 48.95-1.35L48.95-1.35Q52.4-1.35 56-4.4L56-4.4Q56.75-3.95 57.15-2.85L57.15-2.85Q53.7 1 48.4 1L48.4 1Q36.2 1 36.2-13.35L36.2-13.35Q36.2-20.15 39.8-23.93 43.4-27.7 48.2-27.7L48.2-27.7Q53.45-27.7 55.75-24.05 58.05-20.4 58.05-14.55L58.05-14.55Q57.55-14.15 57-14.1ZM48.1-25.7L48.1-25.7Q45.5-25.7 43.67-23 41.85-20.3 41.45-16.1L41.45-16.1 47.65-16.1Q51.35-16.1 52.95-16.55L52.95-16.55Q52.95-20.65 51.7-23.18 50.45-25.7 48.1-25.7ZM66.95-6.65L66.95-6.65Q66.95-4.05 67.9-2.98 68.85-1.9 70.9-1.9L70.9-1.9Q72.4-1.9 74.22-2.83 76.05-3.75 77.6-5.5L77.6-5.5 77.6-13.3Q72.45-13 69.7-11.48 66.95-9.95 66.95-6.65ZM77.6-15.1L77.6-15.1 77.6-17.65Q77.6-21.9 76.62-23.83 75.65-25.75 73.4-25.75L73.4-25.75Q71.1-25.75 69.7-24.28 68.3-22.8 67.8-19.25L67.8-19.25Q66.2-18.9 65.45-18.9L65.45-18.9Q63.5-18.9 63.15-20.3L63.15-20.3Q63.15-23.7 66.1-25.7 69.05-27.7 73.45-27.7L73.45-27.7Q78.3-27.7 80.32-25.73 82.35-23.75 82.35-18.65L82.35-18.65 82.35-4.55Q82.35-3.3 82.5-2.4L82.5-2.4 86.45-1.9Q86.65-1.15 86.45 0L86.45 0Q82.9 0.15 78.9 0.7L78.9 0.7Q78.5 0.3 78.4-0.3L78.4-0.3 78.15-3.75Q74 1 68.9 1L68.9 1Q65.75 1 63.97-0.8 62.2-2.6 62.2-5.65L62.2-5.65Q62.2-10.25 66.37-12.6 70.55-14.95 77.6-15.1ZM97.54-26.7L97.54-26.7 97.44-21.55Q98.69-23.85 100.92-25.78 103.14-27.7 105.14-27.7L105.14-27.7Q106.69-27.7 107.89-27.35L107.89-27.35Q108.29-26.7 108.29-25.65L108.29-25.65Q108.29-24 107.59-22.35L107.59-22.35Q105.79-22.85 104.14-22.85L104.14-22.85Q100.04-22.85 97.39-18.85L97.39-18.85 97.29-10.1 97.29-2.55 102.84-1.8Q103.04-1 102.84 0.2L102.84 0.2Q99.69 0.05 95.64 0.05L95.64 0.05Q92.59 0.05 88.39 0.15L88.39 0.15Q88.09-0.8 88.39-1.8L88.39-1.8 92.34-2.35Q92.54-5.1 92.54-8.7L92.54-8.7 92.54-22.4Q92.54-23.4 92.39-24.25L92.39-24.25 88.44-24.75Q88.24-25.5 88.44-26.65L88.44-26.65Q91.89-26.9 97.04-27.7L97.04-27.7Q97.49-27.2 97.54-26.7ZM130.94-8.7L130.94-17.85Q130.94-21.7 129.92-23.25 128.89-24.8 126.49-24.8L126.49-24.8Q122.79-24.8 119.04-19.25L119.04-19.25 119.04-2.55 123.09-1.8Q123.29-1 123.09 0.2L123.09 0.2Q119.94 0.05 116.64 0.05L116.64 0.05Q114.34 0.05 110.14 0.15L110.14 0.15Q109.84-0.8 110.14-1.8L110.14-1.8 114.09-2.35Q114.29-5.1 114.29-8.7L114.29-8.7 114.29-22.4Q114.29-23.4 114.14-24.25L114.14-24.25 110.19-24.75Q109.99-25.5 110.19-26.65L110.19-26.65Q113.64-26.9 118.79-27.7L118.79-27.7Q119.24-27.2 119.29-26.7L119.29-26.7Q119.04-25.4 119.04-22.25L119.04-22.25Q122.99-27.7 127.94-27.7L127.94-27.7Q135.69-27.7 135.69-20.35L135.69-20.35 135.69-2.55 139.74-1.8Q139.94-1 139.74 0.2L139.74 0.2Q136.59 0.05 133.29 0.05L133.29 0.05Q130.99 0.05 126.79 0.15L126.79 0.15Q126.49-0.8 126.79-1.8L126.79-1.8 130.74-2.35Q130.94-5.1 130.94-8.7L130.94-8.7ZM159.54-6.65L159.54-6.65Q159.54-4.05 160.49-2.98 161.44-1.9 163.49-1.9L163.49-1.9Q164.99-1.9 166.81-2.83 168.64-3.75 170.19-5.5L170.19-5.5 170.19-13.3Q165.04-13 162.29-11.48 159.54-9.95 159.54-6.65ZM170.19-15.1L170.19-15.1 170.19-17.65Q170.19-21.9 169.21-23.83 168.24-25.75 165.99-25.75L165.99-25.75Q163.69-25.75 162.29-24.28 160.89-22.8 160.39-19.25L160.39-19.25Q158.79-18.9 158.04-18.9L158.04-18.9Q156.09-18.9 155.74-20.3L155.74-20.3Q155.74-23.7 158.69-25.7 161.64-27.7 166.04-27.7L166.04-27.7Q170.89-27.7 172.91-25.73 174.94-23.75 174.94-18.65L174.94-18.65 174.94-4.55Q174.94-3.3 175.09-2.4L175.09-2.4 179.04-1.9Q179.24-1.15 179.04 0L179.04 0Q175.49 0.15 171.49 0.7L171.49 0.7Q171.09 0.3 170.99-0.3L170.99-0.3 170.74-3.75Q166.59 1 161.49 1L161.49 1Q158.34 1 156.56-0.8 154.79-2.6 154.79-5.65L154.79-5.65Q154.79-10.25 158.96-12.6 163.14-14.95 170.19-15.1ZM201.78-8.7L201.78-17.85Q201.78-21.7 200.76-23.25 199.73-24.8 197.33-24.8L197.33-24.8Q193.63-24.8 189.88-19.25L189.88-19.25 189.88-2.55 193.93-1.8Q194.13-1 193.93 0.2L193.93 0.2Q190.78 0.05 187.48 0.05L187.48 0.05Q185.18 0.05 180.98 0.15L180.98 0.15Q180.68-0.8 180.98-1.8L180.98-1.8 184.93-2.35Q185.13-5.1 185.13-8.7L185.13-8.7 185.13-22.4Q185.13-23.4 184.98-24.25L184.98-24.25 181.03-24.75Q180.83-25.5 181.03-26.65L181.03-26.65Q184.48-26.9 189.63-27.7L189.63-27.7Q190.08-27.2 190.13-26.7L190.13-26.7Q189.88-25.4 189.88-22.25L189.88-22.25Q193.83-27.7 198.78-27.7L198.78-27.7Q206.53-27.7 206.53-20.35L206.53-20.35 206.53-2.55 210.58-1.8Q210.78-1 210.58 0.2L210.58 0.2Q207.43 0.05 204.13 0.05L204.13 0.05Q201.83 0.05 197.63 0.15L197.63 0.15Q197.33-0.8 197.63-1.8L197.63-1.8 201.58-2.35Q201.78-5.1 201.78-8.7L201.78-8.7ZM237.63-31.7L237.63-7.1Q237.63-3.75 237.78-2.4L237.78-2.4 241.73-1.9Q241.88-1.1 241.73 0L241.73 0Q238.08 0.15 234.13 0.7L234.13 0.7Q233.78 0.35 233.63-0.25L233.63-0.25 233.38-3.45Q231.63-1.4 229.03-0.18 226.43 1.05 223.58 1.05L223.58 1.05Q219.23 1.05 216.38-2.58 213.53-6.2 213.53-12.25L213.53-12.25Q213.53-19.25 217.26-23.48 220.98-27.7 226.18-27.7L226.18-27.7Q230.28-27.7 232.88-25.75L232.88-25.75 232.88-32.45Q232.88-35.75 232.73-37.35L232.73-37.35 228.78-37.85Q228.58-38.6 228.78-39.75L228.78-39.75Q232.23-40 237.38-40.8L237.38-40.8Q237.83-40.3 237.88-39.8L237.88-39.8Q237.63-38.5 237.63-31.7L237.63-31.7ZM225.78-25L225.78-25Q222.53-25 220.58-21.58 218.63-18.15 218.63-12.1L218.63-12.1Q218.63-7.15 220.46-4.55 222.28-1.95 225.28-1.95L225.28-1.95Q227.08-1.95 229.23-3.08 231.38-4.2 232.88-6.2L232.88-6.2 232.88-22.2Q230.43-25 225.78-25ZM261.53-8.1L261.53-8.1 261.53-37.6 257.48-38.15Q257.18-39.05 257.48-39.95L257.48-39.95 264.33-39.8 284.53-39.8 284.58-28.2Q283.48-28 282.73-28.2L282.73-28.2 280.38-37.25 266.88-37.25 266.88-22.25 274.88-22.4 276.03-27.3Q276.78-27.5 277.88-27.3L277.88-27.3Q277.68-24.5 277.68-20.85L277.68-20.85Q277.68-17.5 277.83-14.35L277.83-14.35Q276.93-14.05 276.03-14.35L276.03-14.35 274.93-19.55 266.88-19.7 266.88-2.55 281.88-2.55 284.23-11.6Q284.98-11.8 286.08-11.6L286.08-11.6 286.03 0 264.33 0 257.18 0.15Q256.88-0.75 257.18-1.65L257.18-1.65 261.33-2.2Q261.53-4.75 261.53-8.1ZM318.37-24.85L314.62-24.3 306.27-13.95 314.97-2.65 319.17-1.85Q319.37-1.05 319.17 0.15L319.17 0.15Q316.02 0 312.52 0L312.52 0Q310.02 0 305.82 0.1L305.82 0.1Q305.52-0.9 305.82-1.85L305.82-1.85 309.47-2.4 303.17-10.65 296.57-2.25 299.97-1.85Q300.17-1.05 299.97 0.15L299.97 0.15Q296.82 0 294.82 0L294.82 0Q293.82 0 289.62 0.1L289.62 0.1Q289.32-0.9 289.62-1.85L289.62-1.85 293.37-2.4 301.62-12.65 292.77-24.25 289.72-24.95Q289.52-25.75 289.72-26.9L289.72-26.9Q292.47-26.7 295.82-26.7L295.82-26.7Q298.72-26.7 301.97-26.85L301.97-26.85Q302.27-25.95 301.97-24.95L301.97-24.95 298.37-24.3 304.87-15.8 311.67-24.45 308.27-24.85Q308.07-25.65 308.27-26.85L308.27-26.85Q311.02-26.65 313.27-26.65L313.27-26.65Q315.12-26.65 318.37-26.8L318.37-26.8Q318.67-25.8 318.37-24.85L318.37-24.85ZM336.57-1.7L336.57-1.7Q339.87-1.7 341.8-4.9 343.72-8.1 343.72-14.55L343.72-14.55Q343.72-19.5 341.9-22.1 340.07-24.7 337.07-24.7L337.07-24.7Q332.67-24.7 329.47-20.45L329.47-20.45 329.47-4.9Q332.27-1.7 336.57-1.7ZM324.72 4.75L324.72-19.55Q324.72-22.9 324.57-24.25L324.57-24.25 320.62-24.75Q320.47-25.55 320.62-26.65L320.62-26.65Q324.12-26.9 329.22-27.7L329.22-27.7Q329.67-27.25 329.72-26.7L329.72-26.7Q329.47-24.95 329.47-23L329.47-23Q333.52-27.7 338.77-27.7L338.77-27.7Q343.17-27.7 346.1-24.05 349.02-20.4 349.02-14.4L349.02-14.4Q349.02-7.45 345.2-3.23 341.37 1 336.17 1L336.17 1Q332.52 1 329.47-1.35L329.47-1.35 329.47 10.9 334.52 11.65Q334.72 12.45 334.52 13.65L334.52 13.65Q331.37 13.5 327.57 13.5L327.57 13.5Q324.77 13.5 320.57 13.6L320.57 13.6Q320.27 12.6 320.57 11.65L320.57 11.65 324.52 11.1Q324.72 8.35 324.72 4.75L324.72 4.75ZM361.07-31.7L361.07-31.7 361.07-2.55 365.12-1.8Q365.32-1 365.12 0.2L365.12 0.2Q361.97 0.05 358.67 0.05L358.67 0.05Q356.37 0.05 352.17 0.15L352.17 0.15Q351.87-0.8 352.17-1.8L352.17-1.8 356.12-2.35Q356.32-5.1 356.32-8.7L356.32-8.7 356.32-37.35 352.22-37.85Q352.02-38.6 352.22-39.75L352.22-39.75Q355.67-40 360.82-40.8L360.82-40.8Q361.27-40.3 361.32-39.8L361.32-39.8Q361.07-38.5 361.07-31.7ZM368.32-13.3L368.32-13.3Q368.32-16.3 369.19-18.93 370.07-21.55 371.72-23.5 373.37-25.45 375.69-26.58 378.02-27.7 380.92-27.7L380.92-27.7Q383.77-27.7 386.12-26.58 388.47-25.45 390.14-23.5 391.82-21.55 392.72-18.93 393.62-16.3 393.62-13.3L393.62-13.3Q393.62-10.2 392.69-7.6 391.77-5 390.09-3.08 388.42-1.15 386.07-0.08 383.72 1 380.92 1L380.92 1Q377.97 1 375.64-0.05 373.32-1.1 371.69-3 370.07-4.9 369.19-7.53 368.32-10.15 368.32-13.3ZM375.62-22.5L375.62-22.5Q373.47-19.45 373.47-13.3L373.47-13.3Q373.47-10.25 374.04-7.95 374.62-5.65 375.62-4.13 376.62-2.6 377.97-1.85 379.32-1.1 380.92-1.1L380.92-1.1Q382.47-1.1 383.87-1.85 385.27-2.6 386.27-4.13 387.27-5.65 387.87-7.95 388.47-10.25 388.47-13.3L388.47-13.3Q388.47-16.35 387.87-18.68 387.27-21 386.24-22.53 385.22-24.05 383.84-24.83 382.47-25.6 380.92-25.6L380.92-25.6Q377.82-25.6 375.62-22.5ZM406.41-26.7L406.41-26.7 406.31-21.55Q407.56-23.85 409.79-25.78 412.01-27.7 414.01-27.7L414.01-27.7Q415.56-27.7 416.76-27.35L416.76-27.35Q417.16-26.7 417.16-25.65L417.16-25.65Q417.16-24 416.46-22.35L416.46-22.35Q414.66-22.85 413.01-22.85L413.01-22.85Q408.91-22.85 406.26-18.85L406.26-18.85 406.16-10.1 406.16-2.55 411.71-1.8Q411.91-1 411.71 0.2L411.71 0.2Q408.56 0.05 404.51 0.05L404.51 0.05Q401.46 0.05 397.26 0.15L397.26 0.15Q396.96-0.8 397.26-1.8L397.26-1.8 401.21-2.35Q401.41-5.1 401.41-8.7L401.41-8.7 401.41-22.4Q401.41-23.4 401.26-24.25L401.26-24.25 397.31-24.75Q397.11-25.5 397.31-26.65L397.31-26.65Q400.76-26.9 405.91-27.7L405.91-27.7Q406.36-27.2 406.41-26.7ZM440.36-14.1L440.36-14.1 424.66-14.1Q424.21-1.35 432.31-1.35L432.31-1.35Q435.76-1.35 439.36-4.4L439.36-4.4Q440.11-3.95 440.51-2.85L440.51-2.85Q437.06 1 431.76 1L431.76 1Q419.56 1 419.56-13.35L419.56-13.35Q419.56-20.15 423.16-23.93 426.76-27.7 431.56-27.7L431.56-27.7Q436.81-27.7 439.11-24.05 441.41-20.4 441.41-14.55L441.41-14.55Q440.91-14.15 440.36-14.1ZM431.46-25.7L431.46-25.7Q428.86-25.7 427.04-23 425.21-20.3 424.81-16.1L424.81-16.1 431.01-16.1Q434.71-16.1 436.31-16.55L436.31-16.55Q436.31-20.65 435.06-23.18 433.81-25.7 431.46-25.7Z" opacity="1" transform="matrix(1,0,0,1,0,0)" fill="#7dd3fc" class="slogan-text-1" data-fill-palette-color="secondary" id="text-1"></path></svg></g></svg></g></svg></g></svg></g><g></g></svg></g></svg></g></svg></g></svg></g><defs></defs></svg><rect width="320" height="360" fill="none" stroke="none" visibility="hidden"></rect></g></svg></g></svg>