<svg xmlns="http://www.w3.org/2000/svg" version="1.1" xmlns:xlink="http://www.w3.org/1999/xlink" xmlns:svgjs="http://svgjs.dev/svgjs" width="1500" height="367" viewBox="0 0 1500 367"><g transform="matrix(1,0,0,1,-0.9090909090909918,-0.09326525692202381)"><svg viewBox="0 0 396 97" data-background-color="#ffffff" preserveAspectRatio="xMidYMid meet" height="367" width="1500" xmlns="http://www.w3.org/2000/svg" xmlns:xlink="http://www.w3.org/1999/xlink"><g id="tight-bounds" transform="matrix(1,0,0,1,0.2400000000000091,0.024650490249143786)"><svg viewBox="0 0 395.52 96.95069901950168" height="96.95069901950168" width="395.52"><g><svg viewBox="0 0 561.3893486595641 137.60894461632154" height="96.95069901950168" width="395.52"><g><rect width="5.531577003088929" height="114.29503251190341" x="145.85720358556176" y="11.656956052209061" fill="#0080ff" opacity="1" stroke-width="0" stroke="transparent" fill-opacity="1" class="rect-yte-0" data-fill-palette-color="primary" rx="1%" id="yte-0" data-palette-color="#0080ff"></rect></g><g transform="matrix(1,0,0,1,165.8693486595641,11.94127205348245)"><svg viewBox="0 0 395.52 113.72640050935664" height="113.72640050935664" width="395.52"><g id="textblocktransform"><svg viewBox="0 0 395.52 113.72640050935664" height="113.72640050935664" width="395.52" id="textblock"><g><svg viewBox="0 0 395.52 61.33858617950755" height="61.33858617950755" width="395.52"><g transform="matrix(1,0,0,1,0,0)"><svg width="395.52" viewBox="4.9 -38.55 251.78 39.05" height="61.33858617950755" data-palette-color="#0080ff"><path d="M34.55-35L9.4-10.6 9.1-16.65 27.45-35 34.55-35ZM10.3 0L4.9 0 4.9-35 10.3-35 10.3 0ZM34.85 0L28.1 0 14.7-17.9 18.7-21.35 34.85 0ZM48.05 0.5L48.05 0.5Q44.8 0.5 42.12-1.3 39.45-3.1 37.85-6.2 36.25-9.3 36.25-13.2L36.25-13.2Q36.25-17.15 37.87-20.23 39.5-23.3 42.27-25.05 45.05-26.8 48.5-26.8L48.5-26.8Q50.55-26.8 52.25-26.2 53.95-25.6 55.22-24.53 56.5-23.45 57.32-22.05 58.15-20.65 58.35-19.05L58.35-19.05 57.2-19.45 57.2-26.25 62.4-26.25 62.4 0 57.2 0 57.2-6.25 58.4-6.6Q58.1-5.25 57.17-3.98 56.25-2.7 54.82-1.7 53.4-0.7 51.67-0.1 49.95 0.5 48.05 0.5ZM49.4-4.25L49.4-4.25Q51.75-4.25 53.55-5.4 55.35-6.55 56.37-8.58 57.4-10.6 57.4-13.2L57.4-13.2Q57.4-15.75 56.37-17.75 55.35-19.75 53.55-20.9 51.75-22.05 49.4-22.05L49.4-22.05Q47.1-22.05 45.32-20.9 43.55-19.75 42.52-17.75 41.5-15.75 41.5-13.2L41.5-13.2Q41.5-10.6 42.52-8.58 43.55-6.55 45.32-5.4 47.1-4.25 49.4-4.25ZM78 0L72.84 0 72.84-32.95 78-32.95 78 0ZM84.09-21.25L67.4-21.25 67.4-26.25 84.09-26.25 84.09-21.25ZM98.64 0.5L98.64 0.5Q95.39 0.5 92.72-1.3 90.04-3.1 88.44-6.2 86.84-9.3 86.84-13.2L86.84-13.2Q86.84-17.15 88.47-20.23 90.09-23.3 92.87-25.05 95.64-26.8 99.09-26.8L99.09-26.8Q101.14-26.8 102.84-26.2 104.54-25.6 105.82-24.53 107.09-23.45 107.92-22.05 108.74-20.65 108.94-19.05L108.94-19.05 107.79-19.45 107.79-26.25 112.99-26.25 112.99 0 107.79 0 107.79-6.25 108.99-6.6Q108.69-5.25 107.77-3.98 106.84-2.7 105.42-1.7 103.99-0.7 102.27-0.1 100.54 0.5 98.64 0.5ZM99.99-4.25L99.99-4.25Q102.34-4.25 104.14-5.4 105.94-6.55 106.97-8.58 107.99-10.6 107.99-13.2L107.99-13.2Q107.99-15.75 106.97-17.75 105.94-19.75 104.14-20.9 102.34-22.05 99.99-22.05L99.99-22.05Q97.69-22.05 95.92-20.9 94.14-19.75 93.12-17.75 92.09-15.75 92.09-13.2L92.09-13.2Q92.09-10.6 93.12-8.58 94.14-6.55 95.92-5.4 97.69-4.25 99.99-4.25ZM144.14-26.25L124.89-8.2 124.64-13.8 137.19-26.25 144.14-26.25ZM125.34 0L120.19 0 120.19-37 125.34-37 125.34 0ZM144.49 0L137.89 0 127.99-11.55 131.64-14.9 144.49 0ZM157.59 0.5L157.59 0.5Q154.34 0.5 151.66-1.3 148.99-3.1 147.39-6.2 145.79-9.3 145.79-13.2L145.79-13.2Q145.79-17.15 147.41-20.23 149.04-23.3 151.81-25.05 154.59-26.8 158.04-26.8L158.04-26.8Q160.09-26.8 161.79-26.2 163.49-25.6 164.76-24.53 166.04-23.45 166.86-22.05 167.69-20.65 167.89-19.05L167.89-19.05 166.74-19.45 166.74-26.25 171.94-26.25 171.94 0 166.74 0 166.74-6.25 167.94-6.6Q167.64-5.25 166.71-3.98 165.79-2.7 164.36-1.7 162.94-0.7 161.21-0.1 159.49 0.5 157.59 0.5ZM158.94-4.25L158.94-4.25Q161.29-4.25 163.09-5.4 164.89-6.55 165.91-8.58 166.94-10.6 166.94-13.2L166.94-13.2Q166.94-15.75 165.91-17.75 164.89-19.75 163.09-20.9 161.29-22.05 158.94-22.05L158.94-22.05Q156.64-22.05 154.86-20.9 153.09-19.75 152.06-17.75 151.04-15.75 151.04-13.2L151.04-13.2Q151.04-10.6 152.06-8.58 153.09-6.55 154.86-5.4 156.64-4.25 158.94-4.25ZM187.54 0L182.39 0 182.39-32.95 187.54-32.95 187.54 0ZM193.64-21.25L176.94-21.25 176.94-26.25 193.64-26.25 193.64-21.25ZM208.18 0.5L208.18 0.5Q204.93 0.5 202.26-1.3 199.58-3.1 197.98-6.2 196.38-9.3 196.38-13.2L196.38-13.2Q196.38-17.15 198.01-20.23 199.63-23.3 202.41-25.05 205.18-26.8 208.63-26.8L208.63-26.8Q210.68-26.8 212.38-26.2 214.08-25.6 215.36-24.53 216.63-23.45 217.46-22.05 218.28-20.65 218.48-19.05L218.48-19.05 217.33-19.45 217.33-26.25 222.53-26.25 222.53 0 217.33 0 217.33-6.25 218.53-6.6Q218.23-5.25 217.31-3.98 216.38-2.7 214.96-1.7 213.53-0.7 211.81-0.1 210.08 0.5 208.18 0.5ZM209.53-4.25L209.53-4.25Q211.88-4.25 213.68-5.4 215.48-6.55 216.51-8.58 217.53-10.6 217.53-13.2L217.53-13.2Q217.53-15.75 216.51-17.75 215.48-19.75 213.68-20.9 211.88-22.05 209.53-22.05L209.53-22.05Q207.23-22.05 205.46-20.9 203.68-19.75 202.66-17.75 201.63-15.75 201.63-13.2L201.63-13.2Q201.63-10.6 202.66-8.58 203.68-6.55 205.46-5.4 207.23-4.25 209.53-4.25ZM234.93 0L229.73 0 229.73-26.25 234.93-26.25 234.93-18 234.43-20Q234.98-21.9 236.31-23.45 237.63-25 239.36-25.9 241.08-26.8 242.93-26.8L242.93-26.8Q243.78-26.8 244.56-26.65 245.33-26.5 245.78-26.3L245.78-26.3 244.43-20.7Q243.83-20.95 243.11-21.13 242.38-21.3 241.68-21.3L241.68-21.3Q240.33-21.3 239.11-20.78 237.88-20.25 236.96-19.33 236.03-18.4 235.48-17.18 234.93-15.95 234.93-14.5L234.93-14.5 234.93 0ZM255.88 0L250.73 0 250.73-26.25 255.88-26.25 255.88 0ZM253.23-32.05L253.23-32.05Q251.58-32.05 250.68-32.9 249.78-33.75 249.78-35.3L249.78-35.3Q249.78-36.75 250.7-37.65 251.63-38.55 253.23-38.55L253.23-38.55Q254.88-38.55 255.78-37.7 256.68-36.85 256.68-35.3L256.68-35.3Q256.68-33.85 255.75-32.95 254.83-32.05 253.23-32.05Z" opacity="1" transform="matrix(1,0,0,1,0,0)" fill="#0080ff" class="wordmark-text-0" data-fill-palette-color="primary" id="text-0"></path></svg></g></svg></g><g transform="matrix(1,0,0,1,0,75.81915425042098)"><svg viewBox="0 0 395.52 37.907246258935665" height="37.907246258935665" width="395.52"><g transform="matrix(1,0,0,1,0,0)"><svg width="395.52" viewBox="1.6 -35.95 495.60999999999996 47.5" height="37.907246258935665" data-palette-color="#0080ff"><path d="M10.4 0.6L10.4 0.6Q7.7 0.6 5.45-0.38 3.2-1.35 1.6-2.7L1.6-2.7 2.9-4.35Q4.45-3.05 6.2-2.18 7.95-1.3 10.55-1.3L10.55-1.3Q13.4-1.3 14.83-2.73 16.25-4.15 16.25-6.05L16.25-6.05Q16.25-7.15 15.73-8 15.2-8.85 14.35-9.45 13.5-10.05 12.48-10.5 11.45-10.95 10.4-11.35L10.4-11.35Q9.05-11.85 7.68-12.4 6.3-12.95 5.2-13.73 4.1-14.5 3.43-15.58 2.75-16.65 2.75-18.2L2.75-18.2Q2.75-19.5 3.25-20.68 3.75-21.85 4.75-22.73 5.75-23.6 7.18-24.1 8.6-24.6 10.5-24.6L10.5-24.6Q12.4-24.6 14.23-23.9 16.05-23.2 17.35-22.1L17.35-22.1 16.15-20.55Q14.95-21.45 13.6-22.08 12.25-22.7 10.4-22.7L10.4-22.7Q9-22.7 8-22.33 7-21.95 6.33-21.35 5.65-20.75 5.33-19.95 5-19.15 5-18.35L5-18.35Q5-17.3 5.48-16.57 5.95-15.85 6.75-15.3 7.55-14.75 8.58-14.33 9.6-13.9 10.65-13.5L10.65-13.5Q12.05-12.95 13.45-12.4 14.85-11.85 15.98-11.05 17.1-10.25 17.8-9.08 18.5-7.9 18.5-6.15L18.5-6.15Q18.5-4.8 17.98-3.58 17.45-2.35 16.4-1.43 15.35-0.5 13.85 0.05 12.35 0.6 10.4 0.6ZM38.3 0.6L38.3 0.6Q36.55 0.6 35.4 0.08 34.25-0.45 33.55-1.4 32.85-2.35 32.57-3.7 32.3-5.05 32.3-6.65L32.3-6.65 32.3-22.1 28.55-22.1 28.55-23.8 32.35-24 32.65-30.95 34.55-30.95 34.55-24 41.5-24 41.5-22.1 34.55-22.1 34.55-6.45Q34.55-5.3 34.72-4.38 34.9-3.45 35.35-2.78 35.8-2.1 36.57-1.73 37.35-1.35 38.6-1.35L38.6-1.35Q39.3-1.35 40.12-1.58 40.95-1.8 41.6-2.1L41.6-2.1 42.2-0.3Q41.15 0.1 40.1 0.35 39.05 0.6 38.3 0.6ZM63.45 0.6L63.45 0.6Q61.3 0.6 59.35-0.25 57.4-1.1 55.92-2.7 54.45-4.3 53.57-6.63 52.7-8.95 52.7-11.95L52.7-11.95Q52.7-14.95 53.57-17.32 54.45-19.7 55.92-21.3 57.4-22.9 59.35-23.75 61.3-24.6 63.45-24.6L63.45-24.6Q65.6-24.6 67.57-23.75 69.55-22.9 71.02-21.3 72.5-19.7 73.37-17.32 74.25-14.95 74.25-11.95L74.25-11.95Q74.25-8.95 73.37-6.63 72.5-4.3 71.02-2.7 69.55-1.1 67.57-0.25 65.6 0.6 63.45 0.6ZM63.45-1.35L63.45-1.35Q65.25-1.35 66.82-2.13 68.4-2.9 69.52-4.3 70.65-5.7 71.3-7.65 71.95-9.6 71.95-11.95L71.95-11.95Q71.95-14.35 71.3-16.3 70.65-18.25 69.52-19.68 68.4-21.1 66.82-21.88 65.25-22.65 63.45-22.65L63.45-22.65Q61.65-22.65 60.1-21.88 58.55-21.1 57.42-19.68 56.3-18.25 55.65-16.3 55-14.35 55-11.95L55-11.95Q55-9.6 55.65-7.65 56.3-5.7 57.42-4.3 58.55-2.9 60.1-2.13 61.65-1.35 63.45-1.35ZM91.54 0L89.34 0 89.34-24 91.24-24 91.44-19.55 91.59-19.55Q92.79-21.8 94.52-23.2 96.24-24.6 98.39-24.6L98.39-24.6Q99.09-24.6 99.64-24.5 100.19-24.4 100.79-24.1L100.79-24.1 100.29-22.1Q99.69-22.35 99.24-22.43 98.79-22.5 98.09-22.5L98.09-22.5Q96.49-22.5 94.72-21.13 92.94-19.75 91.54-16.35L91.54-16.35 91.54 0ZM113.94 10.95L113.94 10.95Q112.59 10.95 111.49 10.45L111.49 10.45 111.99 8.5Q112.39 8.65 112.89 8.78 113.39 8.9 113.94 8.9L113.94 8.9Q116.19 8.9 117.69 7.1 119.19 5.3 120.09 2.55L120.09 2.55 120.74 0.45 110.89-24 113.29-24 119.09-8.9Q119.64-7.4 120.32-5.6 120.99-3.8 121.69-2.2L121.69-2.2 121.89-2.2Q122.44-3.8 123.02-5.6 123.59-7.4 124.09-8.9L124.09-8.9 129.24-24 131.49-24 121.99 3Q121.49 4.5 120.77 5.95 120.04 7.4 119.07 8.5 118.09 9.6 116.82 10.28 115.54 10.95 113.94 10.95ZM167.74 0.6L167.74 0.6Q166.29 0.6 165.04 0.2 163.79-0.2 162.84-1 161.89-1.8 161.34-3.05 160.79-4.3 160.79-6L160.79-6Q160.79-10 164.51-12.08 168.24-14.15 176.29-15.05L176.29-15.05Q176.29-16.4 176.09-17.78 175.89-19.15 175.24-20.23 174.59-21.3 173.49-21.98 172.39-22.65 170.59-22.65L170.59-22.65Q168.19-22.65 166.19-21.7 164.19-20.75 162.94-19.85L162.94-19.85 161.94-21.5Q162.59-21.95 163.51-22.5 164.44-23.05 165.59-23.5 166.74-23.95 168.09-24.28 169.44-24.6 170.89-24.6L170.89-24.6Q172.99-24.6 174.44-23.88 175.89-23.15 176.79-21.9 177.69-20.65 178.09-18.98 178.49-17.3 178.49-15.35L178.49-15.35 178.49 0 176.59 0 176.39-3.1 176.24-3.1Q174.39-1.65 172.26-0.53 170.14 0.6 167.74 0.6ZM168.14-1.3L168.14-1.3Q170.24-1.3 172.14-2.3 174.04-3.3 176.29-5.2L176.29-5.2 176.29-13.35Q172.59-12.9 170.04-12.25 167.49-11.6 165.94-10.7 164.39-9.8 163.71-8.65 163.04-7.5 163.04-6.1L163.04-6.1Q163.04-4.8 163.44-3.9 163.84-3 164.54-2.43 165.24-1.85 166.16-1.58 167.09-1.3 168.14-1.3ZM197.13 0L194.93 0 194.93-24 196.83-24 197.03-20.3 197.18-20.3Q199.03-22.15 200.98-23.38 202.93-24.6 205.43-24.6L205.43-24.6Q209.18-24.6 210.93-22.35 212.68-20.1 212.68-15.4L212.68-15.4 212.68 0 210.48 0 210.48-15.1Q210.48-18.95 209.21-20.78 207.93-22.6 204.98-22.6L204.98-22.6Q202.83-22.6 201.08-21.48 199.33-20.35 197.13-18.1L197.13-18.1 197.13 0ZM237.38 0.6L237.38 0.6Q232.83 0.6 230.13-2.63 227.43-5.85 227.43-11.95L227.43-11.95Q227.43-14.85 228.28-17.2 229.13-19.55 230.61-21.2 232.08-22.85 234.01-23.73 235.93-24.6 238.08-24.6L238.08-24.6Q240.28-24.6 241.91-23.83 243.53-23.05 245.33-21.65L245.33-21.65 245.23-26.05 245.23-35.95 247.43-35.95 247.43 0 245.53 0 245.33-3.1 245.18-3.1Q243.73-1.65 241.76-0.53 239.78 0.6 237.38 0.6ZM237.68-1.35L237.68-1.35Q239.68-1.35 241.51-2.38 243.33-3.4 245.23-5.3L245.23-5.3 245.23-19.55Q243.33-21.25 241.66-21.95 239.98-22.65 238.23-22.65L238.23-22.65Q236.43-22.65 234.88-21.83 233.33-21 232.21-19.58 231.08-18.15 230.43-16.18 229.78-14.2 229.78-11.95L229.78-11.95Q229.78-9.55 230.31-7.6 230.83-5.65 231.83-4.28 232.83-2.9 234.31-2.13 235.78-1.35 237.68-1.35ZM285.38 0.6L285.38 0.6Q282.43 0.6 282.43-3.2L282.43-3.2 282.43-35.95 284.63-35.95 284.63-2.9Q284.63-2.1 284.93-1.73 285.23-1.35 285.68-1.35L285.68-1.35Q285.83-1.35 286-1.35 286.18-1.35 286.58-1.45L286.58-1.45 286.98 0.35Q286.63 0.45 286.28 0.53 285.93 0.6 285.38 0.6ZM311.27 0.6L311.27 0.6Q308.97 0.6 306.95-0.25 304.92-1.1 303.42-2.73 301.92-4.35 301.05-6.68 300.17-9 300.17-11.95L300.17-11.95Q300.17-14.9 301.05-17.25 301.92-19.6 303.4-21.23 304.87-22.85 306.75-23.73 308.62-24.6 310.62-24.6L310.62-24.6Q314.92-24.6 317.37-21.7 319.82-18.8 319.82-13.5L319.82-13.5Q319.82-13.05 319.82-12.6 319.82-12.15 319.72-11.7L319.72-11.7 302.42-11.7Q302.47-9.45 303.12-7.53 303.77-5.6 304.95-4.23 306.12-2.85 307.77-2.08 309.42-1.3 311.47-1.3L311.47-1.3Q313.42-1.3 315-1.88 316.57-2.45 317.92-3.45L317.92-3.45 318.82-1.75Q317.37-0.9 315.65-0.15 313.92 0.6 311.27 0.6ZM302.42-13.5L302.42-13.5 317.72-13.5Q317.72-18.15 315.82-20.43 313.92-22.7 310.67-22.7L310.67-22.7Q309.12-22.7 307.72-22.08 306.32-21.45 305.2-20.25 304.07-19.05 303.35-17.35 302.62-15.65 302.42-13.5ZM338.72 0.6L338.72 0.6Q337.27 0.6 336.02 0.2 334.77-0.2 333.82-1 332.87-1.8 332.32-3.05 331.77-4.3 331.77-6L331.77-6Q331.77-10 335.5-12.08 339.22-14.15 347.27-15.05L347.27-15.05Q347.27-16.4 347.07-17.78 346.87-19.15 346.22-20.23 345.57-21.3 344.47-21.98 343.37-22.65 341.57-22.65L341.57-22.65Q339.17-22.65 337.17-21.7 335.17-20.75 333.92-19.85L333.92-19.85 332.92-21.5Q333.57-21.95 334.5-22.5 335.42-23.05 336.57-23.5 337.72-23.95 339.07-24.28 340.42-24.6 341.87-24.6L341.87-24.6Q343.97-24.6 345.42-23.88 346.87-23.15 347.77-21.9 348.67-20.65 349.07-18.98 349.47-17.3 349.47-15.35L349.47-15.35 349.47 0 347.57 0 347.37-3.1 347.22-3.1Q345.37-1.65 343.25-0.53 341.12 0.6 338.72 0.6ZM339.12-1.3L339.12-1.3Q341.22-1.3 343.12-2.3 345.02-3.3 347.27-5.2L347.27-5.2 347.27-13.35Q343.57-12.9 341.02-12.25 338.47-11.6 336.92-10.7 335.37-9.8 334.7-8.65 334.02-7.5 334.02-6.1L334.02-6.1Q334.02-4.8 334.42-3.9 334.82-3 335.52-2.43 336.22-1.85 337.15-1.58 338.07-1.3 339.12-1.3ZM368.12 0L365.92 0 365.92-24 367.82-24 368.02-19.55 368.17-19.55Q369.37-21.8 371.09-23.2 372.82-24.6 374.97-24.6L374.97-24.6Q375.67-24.6 376.22-24.5 376.77-24.4 377.37-24.1L377.37-24.1 376.87-22.1Q376.27-22.35 375.82-22.43 375.37-22.5 374.67-22.5L374.67-22.5Q373.07-22.5 371.29-21.13 369.52-19.75 368.12-16.35L368.12-16.35 368.12 0ZM391.87 0L389.67 0 389.67-24 391.57-24 391.77-20.3 391.92-20.3Q393.77-22.15 395.72-23.38 397.67-24.6 400.17-24.6L400.17-24.6Q403.92-24.6 405.67-22.35 407.42-20.1 407.42-15.4L407.42-15.4 407.42 0 405.22 0 405.22-15.1Q405.22-18.95 403.94-20.78 402.67-22.6 399.72-22.6L399.72-22.6Q397.57-22.6 395.82-21.48 394.07-20.35 391.87-18.1L391.87-18.1 391.87 0ZM426.36 0L424.16 0 424.16-24 426.36-24 426.36 0ZM425.31-29.8L425.31-29.8Q424.46-29.8 423.89-30.35 423.31-30.9 423.31-31.75L423.31-31.75Q423.31-32.7 423.89-33.23 424.46-33.75 425.31-33.75L425.31-33.75Q426.16-33.75 426.74-33.23 427.31-32.7 427.31-31.75L427.31-31.75Q427.31-30.9 426.74-30.35 426.16-29.8 425.31-29.8ZM445.71 0L443.51 0 443.51-24 445.41-24 445.61-20.3 445.76-20.3Q447.61-22.15 449.56-23.38 451.51-24.6 454.01-24.6L454.01-24.6Q457.76-24.6 459.51-22.35 461.26-20.1 461.26-15.4L461.26-15.4 461.26 0 459.06 0 459.06-15.1Q459.06-18.95 457.79-20.78 456.51-22.6 453.56-22.6L453.56-22.6Q451.41-22.6 449.66-21.48 447.91-20.35 445.71-18.1L445.71-18.1 445.71 0ZM485.86 11.55L485.86 11.55Q481.31 11.55 478.66 9.75 476.01 7.95 476.01 4.9L476.01 4.9Q476.01 3.3 476.96 1.8 477.91 0.3 479.56-0.9L479.56-0.9 479.56-1.1Q478.66-1.65 478.06-2.6 477.46-3.55 477.46-4.95L477.46-4.95Q477.46-6.55 478.36-7.68 479.26-8.8 480.06-9.35L480.06-9.35 480.06-9.55Q478.91-10.55 477.98-12.25 477.06-13.95 477.06-16.15L477.06-16.15Q477.06-18 477.71-19.55 478.36-21.1 479.51-22.23 480.66-23.35 482.21-23.98 483.76-24.6 485.51-24.6L485.51-24.6Q486.51-24.6 487.31-24.43 488.11-24.25 488.66-24L488.66-24 496.81-24 496.81-22.15 491.21-22.15Q492.36-21.15 493.11-19.58 493.86-18 493.86-16.1L493.86-16.1Q493.86-14.25 493.21-12.7 492.56-11.15 491.43-10.03 490.31-8.9 488.78-8.28 487.26-7.65 485.51-7.65L485.51-7.65Q484.51-7.65 483.43-7.9 482.36-8.15 481.51-8.65L481.51-8.65Q480.71-8 480.13-7.2 479.56-6.4 479.56-5.2L479.56-5.2Q479.56-3.9 480.51-2.98 481.46-2.05 484.16-2.05L484.16-2.05 489.31-2.05Q493.36-2.05 495.28-0.73 497.21 0.6 497.21 3.45L497.21 3.45Q497.21 5 496.41 6.48 495.61 7.95 494.13 9.08 492.66 10.2 490.56 10.88 488.46 11.55 485.86 11.55ZM485.51-9.4L485.51-9.4Q486.76-9.4 487.88-9.88 489.01-10.35 489.86-11.25 490.71-12.15 491.21-13.4 491.71-14.65 491.71-16.15L491.71-16.15Q491.71-17.65 491.21-18.9 490.71-20.15 489.88-21 489.06-21.85 487.91-22.33 486.76-22.8 485.51-22.8L485.51-22.8Q484.21-22.8 483.08-22.33 481.96-21.85 481.11-21 480.26-20.15 479.76-18.93 479.26-17.7 479.26-16.15L479.26-16.15Q479.26-14.65 479.76-13.4 480.26-12.15 481.13-11.25 482.01-10.35 483.13-9.88 484.26-9.4 485.51-9.4ZM486.11 9.75L486.11 9.75Q488.11 9.75 489.76 9.22 491.41 8.7 492.56 7.85 493.71 7 494.33 5.93 494.96 4.85 494.96 3.7L494.96 3.7Q494.96 1.7 493.53 0.88 492.11 0.05 489.41 0.05L489.41 0.05 484.26 0.05Q483.86 0.05 483.03-0.03 482.21-0.1 481.26-0.35L481.26-0.35Q479.61 0.8 478.86 2.1 478.11 3.4 478.11 4.7L478.11 4.7Q478.11 6.95 480.18 8.35 482.26 9.75 486.11 9.75Z" opacity="1" transform="matrix(1,0,0,1,0,0)" fill="#0080ff" class="slogan-text-1" data-fill-palette-color="secondary" id="text-1"></path></svg></g></svg></g></svg></g></svg></g><g><svg viewBox="0 0 131.37663551464834 137.60894461632154" height="137.60894461632154" width="131.37663551464834"><g><svg version="1.0" xmlns="http://www.w3.org/2000/svg" xmlns:xlink="http://www.w3.org/1999/xlink" x="0" y="0" viewBox="0 0 95.471 100" enable-background="new 0 0 95.471 100" xml:space="preserve" id="icon-0" width="131.37663551464834" height="137.60894461632154" class="icon-icon-0" data-fill-palette-color="accent"><path d="M47.735 0C47.652 2.825 45.997 13.412 27.936 30.934 10.554 47.797 2.439 49.824 0 50 2.439 50.178 10.554 52.204 27.936 69.066 45.997 86.589 47.652 97.177 47.735 100 47.818 97.177 49.474 86.589 67.533 69.066 84.917 52.204 93.031 50.178 95.471 50 93.032 49.824 84.917 47.797 67.533 30.934 49.475 13.412 47.819 2.825 47.735 0" fill="#010c80" data-fill-palette-color="accent"></path></svg></g></svg></g></svg></g><defs></defs></svg><rect width="395.52" height="96.95069901950168" fill="none" stroke="none" visibility="hidden"></rect></g></svg></g></svg>